<svg width="48" height="49" viewBox="0 0 48 49" fill="none" xmlns="http://www.w3.org/2000/svg">
<g id="vuesax/outline/arrow-right">
<g id="arrow-right">
<path id="Vector" d="M28.86 38.14C28.48 38.14 28.1 38 27.8 37.7C27.22 37.12 27.22 36.16 27.8 35.58L38.88 24.5L27.8 13.42C27.22 12.84 27.22 11.88 27.8 11.3C28.38 10.72 29.34 10.72 29.92 11.3L42.06 23.44C42.64 24.02 42.64 24.98 42.06 25.56L29.92 37.7C29.62 38 29.24 38.14 28.86 38.14Z" fill="#FE772D"/>
<path id="Vector_2" d="M40.66 26H7C6.18 26 5.5 25.32 5.5 24.5C5.5 23.68 6.18 23 7 23H40.66C41.48 23 42.16 23.68 42.16 24.5C42.16 25.32 41.48 26 40.66 26Z" fill="#FE772D"/>
</g>
</g>
</svg>
