<svg width="48" height="49" viewBox="0 0 48 49" fill="none" xmlns="http://www.w3.org/2000/svg">
<g id="vuesax/outline/arrow-left">
<g id="arrow-left">
<path id="Vector" d="M19.14 38.14C18.76 38.14 18.38 38 18.08 37.7L5.94 25.56C5.36 24.98 5.36 24.02 5.94 23.44L18.08 11.3C18.66 10.72 19.62 10.72 20.2 11.3C20.78 11.88 20.78 12.84 20.2 13.42L9.12001 24.5L20.2 35.58C20.78 36.16 20.78 37.12 20.2 37.7C19.92 38 19.52 38.14 19.14 38.14Z" fill="#FE772D"/>
<path id="Vector_2" d="M41 26H7.34C6.52 26 5.84 25.32 5.84 24.5C5.84 23.68 6.52 23 7.34 23H41C41.82 23 42.5 23.68 42.5 24.5C42.5 25.32 41.82 26 41 26Z" fill="#FE772D"/>
</g>
</g>
</svg>
