<svg width="392" height="179" viewBox="0 0 392 179" fill="none" xmlns="http://www.w3.org/2000/svg">
<path d="M338.908 96.0201C338.825 96.0201 338.742 96.1104 338.659 96.1104C338.16 96.3812 337.662 96.652 337.247 97.0131L333.594 95.3883L335.338 99.7212C335.089 100.443 334.923 101.165 334.923 101.888L316.41 96.2909C316.41 96.2909 296.817 106.672 297.481 119.129C297.481 119.129 308.938 103.693 316.991 105.047C316.991 105.047 335.919 110.373 342.394 110.644C347.957 106.852 361.987 92.1386 361.987 92.1386C368.379 86.6321 385.315 93.8537 385.315 93.8537C380.251 82.6603 358.5 84.1948 358.5 84.1948L344.968 98.999C344.636 98.3671 344.221 97.7353 343.64 97.2839L343.225 92.5899L340.817 95.9299C340.319 95.8396 339.738 95.8396 339.157 95.8396C339.157 95.9299 338.991 95.9299 338.908 96.0201Z" fill="#333333"/>
<path d="M372.198 24.8881C371.617 24.7979 371.119 24.166 370.953 22.9925C370.87 23.7146 370.704 24.6173 370.621 25.3395C368.296 18.2082 363.647 12.0699 356.009 12.792C358.749 13.6947 359.994 16.9444 360.99 19.6525C364.56 17.125 365.473 21.5482 365.806 24.3465C367.383 23.6244 368.794 24.7979 369.707 26.1519V26.4227C369.541 27.9573 370.455 29.1308 371.617 29.2211C372.696 29.5821 373.941 28.86 374.273 27.3254L374.356 27.0546C375.602 26.1519 377.262 25.52 378.507 26.7838C379.67 24.166 381.911 20.3747 384.485 24.0757C386.228 21.819 388.47 19.2012 391.209 19.3817C384.236 15.9515 378.009 20.0136 373.609 25.9714C373.775 25.2492 373.941 24.3465 374.024 23.7146C373.526 24.6173 372.779 24.9784 372.198 24.8881Z" fill="#333333"/>
<path d="M368.96 129.239C368.296 129.059 367.798 128.337 367.715 126.983C367.549 127.795 367.3 128.788 367.134 129.51C365.307 121.205 360.741 113.713 352.108 113.623C355.013 114.977 356.175 118.768 356.923 121.928C361.157 119.581 361.821 124.545 361.821 127.795C363.73 127.253 365.141 128.698 365.972 130.232L365.889 130.503C365.473 132.218 366.387 133.663 367.715 133.843C368.96 134.385 370.372 133.663 370.87 132.038L370.953 131.767C372.447 130.864 374.356 130.413 375.685 132.038C377.262 129.239 380.168 125.268 382.658 129.691C384.817 127.434 387.639 124.726 390.711 125.268C383.239 120.574 375.768 124.365 370.289 130.413C370.538 129.691 370.787 128.698 371.036 127.885C370.372 129.149 369.541 129.51 368.96 129.239Z" fill="#333333"/>
<path d="M350.115 163.542C349.866 163.361 349.783 163 349.949 162.549C349.783 162.82 349.617 163.181 349.451 163.452C349.7 160.021 348.87 156.591 345.549 155.327C346.545 156.23 346.462 157.855 346.379 159.209C348.289 158.938 347.956 160.924 347.541 162.097C348.289 162.097 348.704 162.91 348.87 163.632L348.787 163.722C348.455 164.354 348.621 164.986 349.119 165.257C349.534 165.618 350.198 165.528 350.53 164.986L350.613 164.896C351.277 164.806 352.024 164.896 352.356 165.618C353.27 164.806 354.847 163.632 355.262 165.708C356.341 165.167 357.753 164.535 358.832 165.167C356.507 162.278 353.27 162.729 350.447 164.264C350.613 163.993 350.862 163.632 351.028 163.452C350.696 163.722 350.281 163.722 350.115 163.542Z" fill="#333333"/>
<path d="M233.723 14.6875C233.474 14.5972 233.225 14.3264 233.142 13.7848C233.059 14.0556 232.976 14.507 232.976 14.8681C232.063 11.5281 230.071 8.54919 226.584 8.72973C227.829 9.18108 228.327 10.7157 228.742 11.9794C230.403 10.8962 230.818 12.9724 230.818 14.2362C231.565 13.9654 232.146 14.507 232.561 15.1389V15.2291C232.395 15.9513 232.81 16.4929 233.391 16.5832C233.889 16.7637 234.471 16.4929 234.637 15.7707V15.6805C235.218 15.3194 235.965 15.0486 236.546 15.6805C237.127 14.507 238.206 12.7919 239.369 14.5972C240.199 13.6043 241.278 12.521 242.606 12.6113C239.452 10.8059 236.546 12.6113 234.388 15.1389C234.471 14.8681 234.554 14.4167 234.637 14.1459C234.305 14.5972 233.972 14.7778 233.723 14.6875Z" fill="#333333"/>
<path d="M156.267 108.116C154.109 108.929 151.203 107.846 148.713 104.145C149.543 106.672 150.705 110.102 151.535 112.72C131.528 92.4998 105.377 80.494 80.0565 98.0965C90.8489 95.8398 100.811 104.506 108.615 112.088C116.751 96.3814 127.377 109.651 133.105 118.949C137.505 113.352 144.147 114.616 149.46 117.414L149.709 118.227C151.618 124.004 156.765 126.261 160.916 124.094C165.399 123.282 168.388 118.046 166.811 112.269L166.562 111.366C169.384 105.769 174.116 100.444 180.675 102.159C180.26 90.875 181.671 73.453 196.78 80.9454C199.022 69.8422 202.425 56.4823 212.388 51.4272C182.418 53.3229 167.724 79.7719 162.411 108.929C161.747 106.311 160.75 102.791 160.086 100.173C160.169 104.686 158.426 107.394 156.267 108.116Z" fill="#FE772D"/>
<path d="M98.4865 22.6311C98.1544 22.0895 98.0714 21.1868 98.7356 20.1035C98.2375 20.5549 97.4903 21.1868 96.9922 21.7284C99.8978 14.236 100.23 5.84097 93.6715 0.424805C95.2488 3.22316 94.0866 6.83394 93.0903 9.72256C97.5733 10.535 95.4148 14.6874 93.7545 17.2149C95.4979 17.9371 95.8299 19.8327 95.6639 21.6381L95.4979 21.8187C94.3356 22.9019 94.2526 24.5268 95.1658 25.5197C95.8299 26.6932 97.3243 27.0543 98.4865 26.0613L98.6526 25.8808C100.23 26.1516 101.973 26.964 102.139 28.95C104.713 27.7765 109.03 26.5127 108.698 31.3872C111.603 30.9359 115.09 30.5748 117.166 32.9218C113.845 24.7073 106.29 23.1727 98.9016 24.4365C99.4827 23.9851 100.147 23.4435 100.728 22.9922C99.7318 23.3532 98.9016 23.1727 98.4865 22.6311Z" fill="#333333"/>
<path d="M54.1548 96.9226C53.5737 97.2837 52.6605 97.1032 51.7473 96.1102C52.0793 96.8324 52.5774 97.8253 52.9925 98.5475C46.102 93.5827 37.7172 91.4162 30.9927 98.0059C34.1474 96.7421 37.4681 98.8183 40.1247 100.624C41.8681 95.4783 45.6039 98.9086 47.7624 101.346C48.8416 99.4502 50.834 99.4502 52.5774 99.9918L52.6605 100.263C53.4906 101.887 55.151 102.249 56.2302 101.436C57.5585 100.985 58.2227 99.2696 57.4755 97.5545L57.3925 97.2837C57.9736 95.4783 59.1359 93.5827 61.2113 93.7632C60.5472 90.4232 60.2151 85.0973 65.0302 86.5416C65.1962 83.1114 65.6113 78.959 68.3509 76.8828C59.468 79.0493 56.3133 87.7151 56.0642 96.7421C55.7321 96.0199 55.317 95.027 54.985 94.3048C55.151 95.6589 54.7359 96.5615 54.1548 96.9226Z" fill="#333333"/>
<path d="M301.881 110.824C301.466 111.186 300.719 111.095 299.972 110.463C300.304 111.005 300.719 111.637 301.051 112.178C295.489 109.019 289.097 108.026 284.448 113.533C286.689 112.359 289.429 113.623 291.504 114.796C292.417 110.824 295.489 113.081 297.315 114.706C297.98 113.171 299.557 113.081 300.885 113.262L300.968 113.442C301.715 114.616 302.961 114.796 303.791 113.984C304.704 113.533 305.119 112.178 304.455 111.005L304.372 110.824C304.704 109.38 305.451 107.936 306.946 107.846C306.281 105.408 305.617 101.436 309.353 102.159C309.27 99.5407 309.27 96.3813 311.18 94.5759C304.621 96.9229 302.878 103.783 303.293 110.554C302.961 110.012 302.629 109.29 302.297 108.748C302.546 109.831 302.297 110.554 301.881 110.824Z" fill="#333333"/>
<path d="M14.9702 102.971C14.6381 103.332 14.057 103.513 13.3098 103.242C13.7249 103.603 14.306 104.055 14.7211 104.325C9.07586 103.423 3.43061 104.596 0.940063 110.734C2.51741 109.019 5.174 109.29 7.24945 109.561C7.0004 105.86 10.1551 106.853 12.1475 107.665C12.3136 106.131 13.5588 105.589 14.8041 105.409L14.9702 105.499C15.8834 106.221 17.0456 105.95 17.4607 105.138C18.1249 104.416 18.1249 103.152 17.2117 102.339L17.0456 102.249C16.9626 100.895 17.2117 99.4508 18.4569 98.9091C17.2117 97.0135 15.6343 93.8541 18.955 93.3124C18.2079 91.146 17.3777 88.4379 18.5399 86.3617C13.6419 90.4238 13.8909 96.7427 16.0494 102.339C15.6343 101.978 15.1362 101.527 14.7211 101.166C15.2192 101.888 15.2192 102.61 14.9702 102.971Z" fill="#333333"/>
<path d="M84.9546 171.756C84.1244 171.305 83.5433 170.131 83.7923 168.236C83.3773 169.228 82.7961 170.583 82.381 171.575C81.8829 159.479 77.483 147.835 65.5283 145.036C69.2641 147.744 69.8453 153.341 70.1773 158.035C76.6528 155.959 76.2377 163.18 75.4905 167.694C78.2301 167.423 79.8075 169.86 80.6377 172.298L80.4716 172.659C79.4754 174.915 80.3886 177.172 82.215 177.804C83.7093 178.978 85.9508 178.346 87.0301 176.179L87.1961 175.818C89.5206 175.096 92.2602 175.006 93.6715 177.533C96.4941 174.103 101.558 169.499 103.966 176.36C107.536 173.832 112.019 171.034 116.253 172.659C107.037 163.903 95.83 166.972 86.615 173.832C87.1131 172.839 87.7772 171.575 88.2753 170.583C87.0301 172.027 85.8678 172.298 84.9546 171.756Z" fill="#333333"/>
<path d="M21.8607 10.7157C21.6117 10.806 21.2796 10.6254 21.0305 10.0838C21.1136 10.3546 21.1966 10.806 21.1966 11.167C19.2041 8.45895 16.2985 6.56329 13.1438 8.18814C14.3891 8.09788 15.4683 9.36165 16.2155 10.3546C17.3777 8.63949 18.457 10.3546 18.9551 11.6184C19.6192 10.9865 20.3664 11.2573 20.9475 11.7087V11.7989C21.1136 12.5211 21.6947 12.8822 22.1928 12.7016C22.7739 12.7016 23.189 12.16 23.106 11.4378V11.3476C23.5211 10.7157 24.1852 10.1741 24.9324 10.5352C25.0984 9.18111 25.5135 7.19518 27.1739 8.36868C27.506 7.01464 28.0871 5.48006 29.3324 5.11898C25.7626 4.75791 23.6871 7.64653 22.6079 10.8962C22.5249 10.6254 22.5249 10.1741 22.4418 9.90326C22.3588 10.3546 22.1098 10.7157 21.8607 10.7157Z" fill="#333333"/>
</svg>
