<svg width="550" height="444" viewBox="0 0 550 444" fill="none" xmlns="http://www.w3.org/2000/svg">
<path d="M298.644 291.681C297.564 290.868 296.983 289.153 297.647 286.626C296.9 287.889 295.904 289.695 295.157 290.959C296.485 274.259 292.251 257.378 276.229 251.24C280.961 255.663 280.878 263.517 280.463 269.926C289.761 268.391 288.017 278.14 286.191 284.188C290.01 284.369 291.753 288.07 292.5 291.59L292.251 292.042C290.591 294.93 291.421 298.27 293.746 299.534C295.655 301.43 298.81 301.069 300.636 298.27L300.885 297.819C304.206 297.277 307.942 297.638 309.519 301.43C314.002 297.277 321.64 291.861 323.798 301.791C329.111 298.993 335.836 295.923 341.315 299.083C330.108 285.272 314.168 287.348 300.387 294.93C301.217 293.667 302.297 292.042 303.127 290.778C301.383 292.403 299.723 292.493 298.644 291.681Z" fill="#FE772D"/>
<path d="M338.908 95.9767C338.825 95.9767 338.742 96.067 338.659 96.067C338.16 96.3378 337.662 96.6086 337.247 96.9696L333.594 95.3448L335.338 99.6777C335.089 100.4 334.923 101.122 334.923 101.844L316.41 96.2475C316.41 96.2475 296.817 106.628 297.481 119.086C297.481 119.086 308.938 103.65 316.991 105.004C316.991 105.004 335.919 110.33 342.394 110.6C347.957 106.809 361.987 92.0951 361.987 92.0951C368.379 86.5887 385.315 93.8102 385.315 93.8102C380.251 82.6168 358.5 84.1514 358.5 84.1514L344.968 98.9556C344.636 98.3237 344.221 97.6918 343.64 97.2405L343.225 92.5464L340.817 95.8864C340.319 95.7961 339.738 95.7961 339.157 95.7961C339.157 95.8864 338.991 95.8864 338.908 95.9767Z" fill="#333333"/>
<path d="M515.321 339.614C515.238 339.614 515.155 339.614 515.072 339.524C514.574 339.433 514.076 339.433 513.661 339.433L511.752 336.274L511.004 340.336C510.506 340.697 510.008 341.149 509.676 341.69L498.967 327.428C498.967 327.428 479.956 324.088 474.642 333.476C474.642 333.476 490.084 328.601 495.231 334.017C495.231 334.017 506.355 348.28 511.004 352.071C516.733 352.432 533.751 349.453 533.751 349.453C540.891 349.002 549.774 363.535 549.774 363.535C551.268 352.703 534.914 341.78 534.914 341.78L518.227 345.03C518.31 344.398 518.227 343.676 518.061 343.044L519.97 339.433L516.65 340.517C516.318 340.156 515.903 339.885 515.487 339.614C515.487 339.704 515.404 339.704 515.321 339.614Z" fill="#333333"/>
<path d="M307.195 415.892C307.112 415.892 307.112 415.802 307.029 415.802C306.696 415.621 306.281 415.44 305.949 415.35L305.202 412.371L303.708 415.35C303.21 415.531 302.795 415.711 302.38 416.072L297.149 402.171C297.149 402.171 283.119 394.679 276.893 400.546C276.893 400.546 290.01 400.817 292.832 406.323C292.832 406.323 298.395 420.315 301.134 424.467C305.534 426.273 319.398 428.349 319.398 428.349C325.127 429.884 328.779 443.514 328.779 443.514C332.349 435.48 321.972 422.752 321.972 422.752L308.274 420.947C308.44 420.496 308.606 419.954 308.606 419.412L310.847 417.065H308.025C307.859 416.704 307.61 416.343 307.361 416.072C307.278 415.982 307.278 415.982 307.195 415.892Z" fill="#333333"/>
<path d="M128.041 384.388C127.875 384.478 127.709 384.478 127.626 384.568C126.796 384.929 126.132 385.471 125.468 386.013L119.905 383.575L122.645 390.165C122.23 391.248 122.064 392.422 122.064 393.505L93.6715 384.929C93.6715 384.929 63.5359 400.907 64.6151 420.044C64.6151 420.044 82.215 396.303 94.5847 398.38C94.5847 398.38 123.641 406.504 133.686 406.955C142.237 401.178 163.739 378.52 163.739 378.52C173.535 370.035 199.603 381.228 199.603 381.228C191.799 364.077 158.343 366.424 158.343 366.424L137.588 389.172C137.09 388.179 136.426 387.276 135.596 386.554L134.932 379.333L131.196 384.478C130.366 384.388 129.535 384.298 128.705 384.388C128.373 384.298 128.207 384.298 128.041 384.388Z" fill="#333333"/>
<path d="M372.198 24.8447C371.617 24.7544 371.119 24.1225 370.953 22.949C370.87 23.6712 370.704 24.5739 370.621 25.296C368.296 18.1647 363.647 12.0264 356.009 12.7486C358.749 13.6513 359.994 16.901 360.99 19.6091C364.56 17.0815 365.473 21.5047 365.806 24.3031C367.383 23.5809 368.794 24.7544 369.707 26.1085V26.3793C369.541 27.9138 370.455 29.0873 371.617 29.1776C372.696 29.5387 373.941 28.8165 374.273 27.282L374.356 27.0111C375.602 26.1085 377.262 25.4766 378.507 26.7403C379.67 24.1225 381.911 20.3312 384.485 24.0323C386.228 21.7755 388.47 19.1577 391.209 19.3382C384.236 15.908 378.009 19.9701 373.609 25.9279C373.775 25.2058 373.941 24.3031 374.024 23.6712C373.526 24.5739 372.779 24.9349 372.198 24.8447Z" fill="#333333"/>
<path d="M368.96 129.196C368.296 129.015 367.798 128.293 367.715 126.939C367.549 127.752 367.3 128.745 367.134 129.467C365.307 121.162 360.741 113.67 352.108 113.579C355.013 114.933 356.175 118.725 356.923 121.884C361.157 119.537 361.821 124.502 361.821 127.752C363.73 127.21 365.141 128.654 365.972 130.189L365.889 130.46C365.473 132.175 366.387 133.619 367.715 133.8C368.96 134.341 370.372 133.619 370.87 131.994L370.953 131.724C372.447 130.821 374.356 130.369 375.685 131.994C377.262 129.196 380.168 125.224 382.658 129.647C384.817 127.391 387.639 124.682 390.711 125.224C383.239 120.53 375.768 124.321 370.289 130.369C370.538 129.647 370.787 128.654 371.036 127.842C370.372 129.106 369.541 129.467 368.96 129.196Z" fill="#333333"/>
<path d="M350.115 163.498C349.866 163.318 349.783 162.957 349.949 162.505C349.783 162.776 349.617 163.137 349.451 163.408C349.7 159.978 348.87 156.547 345.549 155.284C346.545 156.186 346.462 157.811 346.379 159.165C348.289 158.894 347.956 160.88 347.541 162.054C348.289 162.054 348.704 162.866 348.87 163.588L348.787 163.679C348.455 164.311 348.621 164.943 349.119 165.213C349.534 165.574 350.198 165.484 350.53 164.943L350.613 164.852C351.277 164.762 352.024 164.852 352.356 165.574C353.27 164.762 354.847 163.588 355.262 165.665C356.341 165.123 357.753 164.491 358.832 165.123C356.507 162.234 353.27 162.686 350.447 164.22C350.613 163.95 350.862 163.588 351.028 163.408C350.696 163.679 350.281 163.679 350.115 163.498Z" fill="#333333"/>
<path d="M233.723 14.6441C233.474 14.5538 233.225 14.283 233.142 13.7414C233.059 14.0122 232.976 14.4635 232.976 14.8246C232.063 11.4846 230.071 8.50573 226.584 8.68627C227.829 9.13762 228.327 10.6722 228.742 11.936C230.403 10.8527 230.818 12.9289 230.818 14.1927C231.565 13.9219 232.146 14.4635 232.561 15.0954V15.1857C232.395 15.9078 232.81 16.4494 233.391 16.5397C233.889 16.7203 234.471 16.4494 234.637 15.7273V15.637C235.218 15.2759 235.965 15.0051 236.546 15.637C237.127 14.4635 238.206 12.7484 239.369 14.5538C240.199 13.5608 241.278 12.4776 242.606 12.5679C239.452 10.7625 236.546 12.5679 234.388 15.0954C234.471 14.8246 234.554 14.3732 234.637 14.1024C234.305 14.5538 233.972 14.7343 233.723 14.6441Z" fill="#333333"/>
<path d="M156.267 108.073C154.109 108.885 151.203 107.802 148.713 104.101C149.543 106.629 150.705 110.059 151.535 112.677C131.528 92.4564 105.377 80.4505 80.0565 98.0531C90.8489 95.7964 100.811 104.462 108.615 112.045C116.751 96.338 127.377 109.608 133.105 118.905C137.505 113.309 144.147 114.572 149.46 117.371L149.709 118.183C151.618 123.96 156.765 126.217 160.916 124.051C165.399 123.238 168.388 118.003 166.811 112.225L166.562 111.323C169.384 105.726 174.116 100.4 180.675 102.115C180.26 90.8315 181.671 73.4095 196.78 80.9019C199.022 69.7988 202.425 56.4389 212.388 51.3838C182.418 53.2794 167.724 79.7284 162.411 108.885C161.747 106.268 160.75 102.747 160.086 100.129C160.169 104.643 158.426 107.351 156.267 108.073Z" fill="#333333"/>
<path d="M178.433 254.49C177.271 255.031 175.694 254.67 174.116 252.865C174.697 254.219 175.528 255.934 176.109 257.288C164.154 247.629 149.377 242.845 136.592 254.038C142.32 252.143 148.214 256.115 152.863 259.725C156.433 250.698 162.826 257.198 166.479 261.802C168.554 258.462 172.207 258.732 175.278 259.906L175.444 260.357C176.773 263.336 179.761 264.239 181.837 262.794C184.244 262.072 185.573 259.093 184.41 256.024L184.244 255.573C185.49 252.323 187.731 249.164 191.384 249.705C190.554 243.657 190.305 234.089 198.939 237.158C199.52 231.02 200.599 223.527 205.746 220.097C189.641 223.076 183.165 238.331 181.92 254.49C181.422 253.136 180.675 251.33 180.177 249.886C180.343 252.414 179.595 253.948 178.433 254.49Z" fill="#333333"/>
<path d="M342.975 250.428C342.394 251.15 341.315 251.421 339.904 250.699C340.651 251.331 341.564 252.233 342.311 252.865C332.432 250.609 321.972 252.143 316.991 263.066C320.062 260.087 324.711 260.809 328.53 261.621C328.364 254.942 334.093 256.927 337.496 258.733C337.911 256.025 340.236 255.122 342.394 254.851L342.643 255.032C344.221 256.476 346.296 256.115 347.209 254.58C348.538 253.407 348.538 251.15 347.043 249.616L346.794 249.345C346.711 246.998 347.292 244.29 349.7 243.477C347.624 239.957 344.968 234.089 351.111 233.367C349.866 229.395 348.621 224.43 350.862 220.729C341.647 227.59 341.647 239.054 345.051 249.345C344.387 248.623 343.474 247.72 342.809 247.088C343.64 248.442 343.557 249.706 342.975 250.428Z" fill="#333333"/>
<path d="M98.4865 22.5876C98.1544 22.046 98.0714 21.1433 98.7356 20.0601C98.2375 20.5114 97.4903 21.1433 96.9922 21.6849C99.8978 14.1926 100.23 5.79752 93.6715 0.381348C95.2488 3.1797 94.0866 6.79048 93.0903 9.6791C97.5733 10.4915 95.4148 14.6439 93.7545 17.1715C95.4979 17.8936 95.8299 19.7893 95.6639 21.5947L95.4979 21.7752C94.3356 22.8584 94.2526 24.4833 95.1658 25.4763C95.8299 26.6498 97.3243 27.0108 98.4865 26.0179L98.6526 25.8373C100.23 26.1081 101.973 26.9206 102.139 28.9065C104.713 27.733 109.03 26.4692 108.698 31.3438C111.603 30.8924 115.09 30.5313 117.166 32.8784C113.845 24.6638 106.29 23.1293 98.9016 24.393C99.4827 23.9417 100.147 23.4001 100.728 22.9487C99.7318 23.3098 98.9016 23.1293 98.4865 22.5876Z" fill="#333333"/>
<path d="M54.1548 96.8792C53.5737 97.2402 52.6605 97.0597 51.7473 96.0668C52.0793 96.7889 52.5774 97.7819 52.9925 98.504C46.102 93.5392 37.7172 91.3727 30.9927 97.9624C34.1474 96.6986 37.4681 98.7748 40.1247 100.58C41.8681 95.4349 45.6039 98.8651 47.7624 101.302C48.8416 99.4067 50.834 99.4067 52.5774 99.9483L52.6605 100.219C53.4906 101.844 55.151 102.205 56.2302 101.393C57.5585 100.941 58.2227 99.2262 57.4755 97.5111L57.3925 97.2402C57.9736 95.4349 59.1359 93.5392 61.2113 93.7197C60.5472 90.3798 60.2151 85.0539 65.0302 86.4982C65.1962 83.0679 65.6113 78.9156 68.3509 76.8394C59.468 79.0058 56.3133 87.6717 56.0642 96.6986C55.7321 95.9765 55.317 94.9835 54.985 94.2614C55.151 95.6154 54.7359 96.5181 54.1548 96.8792Z" fill="#FE772D"/>
<path d="M301.881 110.781C301.466 111.142 300.719 111.052 299.972 110.42C300.304 110.962 300.719 111.593 301.051 112.135C295.489 108.976 289.097 107.983 284.448 113.489C286.689 112.316 289.429 113.579 291.504 114.753C292.417 110.781 295.489 113.038 297.315 114.663C297.98 113.128 299.557 113.038 300.885 113.218L300.968 113.399C301.715 114.572 302.961 114.753 303.791 113.94C304.704 113.489 305.119 112.135 304.455 110.962L304.372 110.781C304.704 109.337 305.451 107.892 306.946 107.802C306.281 105.365 305.617 101.393 309.353 102.115C309.27 99.4973 309.27 96.3379 311.18 94.5325C304.621 96.8795 302.878 103.74 303.293 110.51C302.961 109.969 302.629 109.246 302.297 108.705C302.546 109.788 302.297 110.51 301.881 110.781Z" fill="#333333"/>
<path d="M14.9702 102.928C14.6381 103.289 14.057 103.469 13.3098 103.199C13.7249 103.56 14.306 104.011 14.7211 104.282C9.07586 103.379 3.43061 104.553 0.940063 110.691C2.51741 108.976 5.174 109.247 7.24945 109.517C7.0004 105.816 10.1551 106.809 12.1475 107.622C12.3136 106.087 13.5588 105.546 14.8041 105.365L14.9702 105.455C15.8834 106.178 17.0456 105.907 17.4607 105.094C18.1249 104.372 18.1249 103.108 17.2117 102.296L17.0456 102.206C16.9626 100.852 17.2117 99.4073 18.4569 98.8657C17.2117 96.97 15.6343 93.8106 18.955 93.269C18.2079 91.1025 17.3777 88.3944 18.5399 86.3182C13.6419 90.3804 13.8909 96.6992 16.0494 102.296C15.6343 101.935 15.1362 101.483 14.7211 101.122C15.2192 101.845 15.2192 102.567 14.9702 102.928Z" fill="#333333"/>
<path d="M84.9546 171.713C84.1244 171.261 83.5433 170.088 83.7923 168.192C83.3773 169.185 82.7961 170.539 82.381 171.532C81.8829 159.436 77.483 147.791 65.5283 144.993C69.2641 147.701 69.8453 153.298 70.1773 157.992C76.6528 155.915 76.2377 163.137 75.4905 167.65C78.2301 167.38 79.8075 169.817 80.6377 172.254L80.4716 172.615C79.4754 174.872 80.3886 177.129 82.215 177.761C83.7093 178.934 85.9508 178.302 87.0301 176.136L87.1961 175.775C89.5206 175.053 92.2602 174.962 93.6715 177.49C96.4941 174.06 101.558 169.456 103.966 176.316C107.536 173.789 112.019 170.99 116.253 172.615C107.037 163.859 95.83 166.928 86.615 173.789C87.1131 172.796 87.7772 171.532 88.2753 170.539C87.0301 171.983 85.8678 172.254 84.9546 171.713Z" fill="#333333"/>
<path d="M21.8607 10.6722C21.6117 10.7625 21.2796 10.582 21.0305 10.0403C21.1136 10.3112 21.1966 10.7625 21.1966 11.1236C19.2041 8.4155 16.2985 6.51984 13.1438 8.14469C14.3891 8.05442 15.4683 9.31819 16.2155 10.3112C17.3777 8.59604 18.457 10.3112 18.9551 11.5749C19.6192 10.943 20.3664 11.2138 20.9475 11.6652V11.7555C21.1136 12.4776 21.6947 12.8387 22.1928 12.6582C22.7739 12.6582 23.189 12.1165 23.106 11.3944V11.3041C23.5211 10.6722 24.1852 10.1306 24.9324 10.4917C25.0984 9.13765 25.5135 7.15172 27.1739 8.32523C27.506 6.97118 28.0871 5.4366 29.3324 5.07553C25.7626 4.71445 23.6871 7.60307 22.6079 10.8528C22.5249 10.582 22.5249 10.1306 22.4418 9.85981C22.3588 10.3112 22.1098 10.6722 21.8607 10.6722Z" fill="#333333"/>
<path d="M222.35 322.643C221.935 323.004 221.188 322.914 220.44 322.282C220.773 322.824 221.271 323.456 221.603 323.997C216.04 320.928 209.565 320.116 204.999 325.803C207.241 324.539 209.98 325.713 212.139 326.886C212.969 322.824 216.123 324.99 217.95 326.706C218.614 325.171 220.108 324.99 221.437 325.171L221.52 325.351C222.267 326.435 223.595 326.615 224.342 325.803C225.255 325.261 225.588 323.907 224.923 322.734L224.84 322.553C225.172 321.109 225.837 319.664 227.414 319.574C226.667 317.137 225.92 313.165 229.655 313.797C229.489 311.179 229.406 308.02 231.316 306.214C224.84 308.742 223.18 315.602 223.761 322.373C223.429 321.831 223.014 321.109 222.765 320.657C223.014 321.56 222.765 322.282 222.35 322.643Z" fill="#333333"/>
</svg>
