<svg width="635" height="593" viewBox="0 0 635 593" fill="none" xmlns="http://www.w3.org/2000/svg">
<path d="M107.826 416.196C104.22 418.348 90.3112 426.687 89.0661 440.3C89.0661 440.3 82.4071 421.636 107.625 404.561C107.625 404.561 132.328 406.447 145.084 407.543C144.996 407.372 144.879 407.287 144.82 407.173C144.202 406.115 143.813 404.939 143.712 403.759L137.222 401.167L144.66 398.849C145.532 397.023 147.038 395.303 149.042 394.124C149.872 393.623 150.761 393.237 151.709 392.965L153.27 386.289L157.127 392.777C158.341 393.02 159.414 393.553 160.402 394.202L171.572 362.422C171.572 362.422 204.988 343.796 220.825 356.201C220.825 356.201 188.879 358.416 182.579 371.233C182.579 371.233 167.814 410.81 162.507 415.289C162.507 415.289 111.433 414.045 107.826 416.196Z" fill="#333333"/>
<path d="M107.826 416.196C104.22 418.348 90.3112 426.687 89.0661 440.3C89.0661 440.3 82.4071 421.636 107.625 404.561C107.625 404.561 132.328 406.447 145.084 407.543C144.996 407.372 144.879 407.287 144.82 407.173C144.202 406.115 143.813 404.939 143.712 403.759L137.222 401.167L144.66 398.849C145.532 397.023 147.038 395.303 149.042 394.124C149.872 393.623 150.761 393.237 151.709 392.965L153.27 386.289L157.127 392.777C158.341 393.02 159.414 393.553 160.402 394.202L171.572 362.422C171.572 362.422 204.988 343.796 220.825 356.201C220.825 356.201 188.879 358.416 182.579 371.233C182.579 371.233 167.814 410.81 162.507 415.289C162.507 415.289 111.433 414.045 107.826 416.196Z" fill="black" fill-opacity="0.6"/>
<path d="M427.439 148.897C425.319 149.991 423.758 152.028 422.281 153.805C420.641 151.753 418.29 150.431 415.579 150.381C412.174 150.11 411.252 152.542 409.841 155.009C406.141 151.919 402.07 153.731 399.575 157.193L399.695 157.565C399.774 159.264 397.14 160.769 395.362 161.541C392.867 162.612 390.931 162.235 389.173 159.954L388.535 159.703C384.543 158.576 378.366 160.387 376.891 164.699C374.542 163.521 372.48 162.338 369.81 163.21C367.455 163.99 365.604 165.888 365.086 168.257C363.17 167.217 361.8 165.967 359.407 165.971C355.892 166.191 352.402 168.427 349.602 170.452C351.264 164.957 353.215 161.848 358.224 158.9C363.66 155.514 370.719 155.131 376.945 154.961C380.345 154.801 383.924 155.127 387.227 156.465C388.3 156.998 389.349 157.906 390.506 158.179L390.704 157.859C390.896 157.107 391.059 156.299 391.396 155.545C391.889 155.798 392.186 156.514 392.426 157.26C393.282 156.528 394.921 156.189 396.107 156.519C396.126 155.712 396.202 154.876 396.482 154.152C396.953 154.923 397.453 155.752 398.068 156.521L398.123 156.348C397.803 153.76 400.419 150.815 402.1 149.15C405.831 145.413 411.533 142.542 416.831 141.981C423.511 141.287 432.828 144.013 437.164 149.601C433.965 149.731 431.023 147.264 427.439 148.897Z" fill="#333333"/>
<path d="M427.439 148.897C425.319 149.991 423.758 152.028 422.281 153.805C420.641 151.753 418.29 150.431 415.579 150.381C412.174 150.11 411.252 152.542 409.841 155.009C406.141 151.919 402.07 153.731 399.575 157.193L399.695 157.565C399.774 159.264 397.14 160.769 395.362 161.541C392.867 162.612 390.931 162.235 389.173 159.954L388.535 159.703C384.543 158.576 378.366 160.387 376.891 164.699C374.542 163.521 372.48 162.338 369.81 163.21C367.455 163.99 365.604 165.888 365.086 168.257C363.17 167.217 361.8 165.967 359.407 165.971C355.892 166.191 352.402 168.427 349.602 170.452C351.264 164.957 353.215 161.848 358.224 158.9C363.66 155.514 370.719 155.131 376.945 154.961C380.345 154.801 383.924 155.127 387.227 156.465C388.3 156.998 389.349 157.906 390.506 158.179L390.704 157.859C390.896 157.107 391.059 156.299 391.396 155.545C391.889 155.798 392.186 156.514 392.426 157.26C393.282 156.528 394.921 156.189 396.107 156.519C396.126 155.712 396.202 154.876 396.482 154.152C396.953 154.923 397.453 155.752 398.068 156.521L398.123 156.348C397.803 153.76 400.419 150.815 402.1 149.15C405.831 145.413 411.533 142.542 416.831 141.981C423.511 141.287 432.828 144.013 437.164 149.601C433.965 149.731 431.023 147.264 427.439 148.897Z" fill="black" fill-opacity="0.6"/>
<path d="M115.571 314.663C115.571 314.663 115.618 313.769 116.594 313.41C116.594 313.41 115.974 314.6 117.16 314.929C118.374 315.172 123.289 316.259 124.261 315.612C125.291 314.936 125.459 314.559 125.459 314.559C125.459 314.559 123.324 312.11 124.321 311.088C124.321 311.088 126.111 311.324 126.94 313.07C126.94 313.07 127.252 312.691 127.997 312.307C128.744 312.066 129.263 312.088 129.263 312.088C128.693 310.281 129.771 308.855 129.771 308.855C131.155 308.865 131.368 312.088 131.368 312.088C131.368 312.088 131.745 312.256 132.924 312.01C134.132 311.821 136.906 307.635 137.614 306.618C138.323 305.6 136.991 305.128 136.991 305.128C137.937 304.712 138.607 305.308 138.607 305.308C147.227 302.888 150.272 309.069 150.272 309.069C146.569 310.329 146.106 312.524 146.106 312.524C140.926 313.314 140.225 317.299 140.225 317.299C134.618 318.526 134.479 323.598 134.479 323.598C133.536 324.302 133.438 325.658 133.471 326.003C133.238 325.833 132.217 324.839 131.065 324.998C131.065 324.998 127.475 321.417 122.553 324.392C122.553 324.392 119.295 322.016 114.978 325.041C114.978 325.041 113.089 323.77 109.592 325.43C109.766 325.486 107.696 318.945 115.571 314.663Z" fill="#333333"/>
<path d="M115.571 314.663C115.571 314.663 115.618 313.769 116.594 313.41C116.594 313.41 115.974 314.6 117.16 314.929C118.374 315.172 123.289 316.259 124.261 315.612C125.291 314.936 125.459 314.559 125.459 314.559C125.459 314.559 123.324 312.11 124.321 311.088C124.321 311.088 126.111 311.324 126.94 313.07C126.94 313.07 127.252 312.691 127.997 312.307C128.744 312.066 129.263 312.088 129.263 312.088C128.693 310.281 129.771 308.855 129.771 308.855C131.155 308.865 131.368 312.088 131.368 312.088C131.368 312.088 131.745 312.256 132.924 312.01C134.132 311.821 136.906 307.635 137.614 306.618C138.323 305.6 136.991 305.128 136.991 305.128C137.937 304.712 138.607 305.308 138.607 305.308C147.227 302.888 150.272 309.069 150.272 309.069C146.569 310.329 146.106 312.524 146.106 312.524C140.926 313.314 140.225 317.299 140.225 317.299C134.618 318.526 134.479 323.598 134.479 323.598C133.536 324.302 133.438 325.658 133.471 326.003C133.238 325.833 132.217 324.839 131.065 324.998C131.065 324.998 127.475 321.417 122.553 324.392C122.553 324.392 119.295 322.016 114.978 325.041C114.978 325.041 113.089 323.77 109.592 325.43C109.766 325.486 107.696 318.945 115.571 314.663Z" fill="black" fill-opacity="0.6"/>
<path d="M370.186 434.97C370.186 434.97 370.389 432.691 372.827 431.65C372.827 431.65 371.193 434.812 374.373 435.49C377.553 436.167 390.041 438.852 392.643 437.146C395.303 435.41 395.753 434.454 395.753 434.454C395.753 434.454 390.312 428.132 392.847 425.591C392.847 425.591 397.468 426.25 399.598 430.657C399.598 430.657 400.45 429.638 402.256 428.778C404.18 428.147 405.536 428.244 405.536 428.244C404.066 423.568 406.904 419.929 406.904 419.929C410.567 419.995 410.958 428.344 410.958 428.344C410.958 428.344 411.885 428.735 414.992 428.146C418.098 427.557 425.205 417.005 427.074 414.3C428.886 411.626 425.528 410.461 425.528 410.461C428.052 409.448 429.772 410.951 429.772 410.951C451.982 404.777 459.731 420.632 459.731 420.632C450.198 423.813 449 429.504 449 429.504C435.676 431.527 433.871 441.806 433.871 441.806C419.466 444.967 419.135 457.963 419.135 457.963C416.679 459.811 416.52 463.299 416.501 464.106C415.917 463.537 413.38 461.152 410.386 461.537C410.386 461.537 401.163 452.385 388.572 460.044C388.572 460.044 380.164 453.877 369.16 461.659C369.16 461.659 364.39 458.324 355.247 462.681C355.247 462.681 349.908 445.872 370.186 434.97Z" fill="#333333"/>
<path d="M370.186 434.97C370.186 434.97 370.389 432.691 372.827 431.65C372.827 431.65 371.193 434.812 374.373 435.49C377.553 436.167 390.041 438.852 392.643 437.146C395.303 435.41 395.753 434.454 395.753 434.454C395.753 434.454 390.312 428.132 392.847 425.591C392.847 425.591 397.468 426.25 399.598 430.657C399.598 430.657 400.45 429.638 402.256 428.778C404.18 428.147 405.536 428.244 405.536 428.244C404.066 423.568 406.904 419.929 406.904 419.929C410.567 419.995 410.958 428.344 410.958 428.344C410.958 428.344 411.885 428.735 414.992 428.146C418.098 427.557 425.205 417.005 427.074 414.3C428.886 411.626 425.528 410.461 425.528 410.461C428.052 409.448 429.772 410.951 429.772 410.951C451.982 404.777 459.731 420.632 459.731 420.632C450.198 423.813 449 429.504 449 429.504C435.676 431.527 433.871 441.806 433.871 441.806C419.466 444.967 419.135 457.963 419.135 457.963C416.679 459.811 416.52 463.299 416.501 464.106C415.917 463.537 413.38 461.152 410.386 461.537C410.386 461.537 401.163 452.385 388.572 460.044C388.572 460.044 380.164 453.877 369.16 461.659C369.16 461.659 364.39 458.324 355.247 462.681C355.247 462.681 349.908 445.872 370.186 434.97Z" fill="black" fill-opacity="0.6"/>
<path d="M322.543 398.621C322.361 402.628 322.465 406.343 317.344 407.247C313.085 407.851 311.547 404.732 308.784 402.753L308.466 402.699C304.607 400.706 301.255 400.117 296.833 401.53C294.733 394.933 287.34 389.185 281.664 394.216C276.51 385.355 270.974 380.676 260.748 378.998L259.791 378.55C281.791 374.078 294.664 386.926 309.988 399.885L309.953 399.395C309.586 397.701 309.249 396.063 308.94 394.339C310.524 396.565 311.38 398.224 314.367 397.262C317.011 396.622 317.731 394.221 317.785 391.512C318.582 393.057 319.017 395.586 319.983 396.755C321.05 394.464 320.81 391.328 320.922 388.734C321.172 383.314 323.794 376.164 326.912 371.801C330.224 366.831 334.064 362.602 338.922 359.08C341.266 357.435 345.51 353.288 348.711 353.302C343.488 357.665 343.405 364.954 344.289 371.164C337.472 365.408 338.465 380.547 338.787 383.28C332.292 387.285 326.298 389.871 323.306 397.43L322.543 398.621Z" fill="#333333"/>
<path d="M322.543 398.621C322.361 402.628 322.465 406.343 317.344 407.247C313.085 407.851 311.547 404.732 308.784 402.753L308.466 402.699C304.607 400.706 301.255 400.117 296.833 401.53C294.733 394.933 287.34 389.185 281.664 394.216C276.51 385.355 270.974 380.676 260.748 378.998L259.791 378.55C281.791 374.078 294.664 386.926 309.988 399.885L309.953 399.395C309.586 397.701 309.249 396.063 308.94 394.339C310.524 396.565 311.38 398.224 314.367 397.262C317.011 396.622 317.731 394.221 317.785 391.512C318.582 393.057 319.017 395.586 319.983 396.755C321.05 394.464 320.81 391.328 320.922 388.734C321.172 383.314 323.794 376.164 326.912 371.801C330.224 366.831 334.064 362.602 338.922 359.08C341.266 357.435 345.51 353.288 348.711 353.302C343.488 357.665 343.405 364.954 344.289 371.164C337.472 365.408 338.465 380.547 338.787 383.28C332.292 387.285 326.298 389.871 323.306 397.43L322.543 398.621Z" fill="black" fill-opacity="0.6"/>
<path d="M377.179 265.347C376.839 272.841 376.983 279.868 367.461 281.523C359.431 282.696 356.563 276.858 351.385 273.154L350.894 273.046C343.64 269.254 337.256 268.274 329.013 270.862C325.171 258.498 311.2 247.739 300.533 257.158C290.815 240.58 280.442 231.732 261.347 228.618L259.547 227.662C300.787 219.273 324.985 243.377 353.711 267.678L353.728 266.728C353.055 263.597 352.382 260.466 351.767 257.305C354.701 261.443 356.412 264.617 361.897 262.873C366.928 261.653 368.17 257.171 368.309 252.099C369.873 254.988 370.739 259.758 372.351 261.897C374.345 257.607 373.84 251.708 374.04 246.895C374.578 236.69 379.459 223.373 385.297 215.142C391.438 205.813 398.721 197.851 407.751 191.306C412.182 188.221 420.187 180.394 426.184 180.486C416.309 188.627 416.249 202.426 417.861 213.985C405.043 203.21 406.834 231.561 407.474 236.738C395.371 244.217 384.1 249.093 378.452 263.313L377.179 265.347Z" fill="#333333"/>
<path d="M377.179 265.347C376.839 272.841 376.983 279.868 367.461 281.523C359.431 282.696 356.563 276.858 351.385 273.154L350.894 273.046C343.64 269.254 337.256 268.274 329.013 270.862C325.171 258.498 311.2 247.739 300.533 257.158C290.815 240.58 280.442 231.732 261.347 228.618L259.547 227.662C300.787 219.273 324.985 243.377 353.711 267.678L353.728 266.728C353.055 263.597 352.382 260.466 351.767 257.305C354.701 261.443 356.412 264.617 361.897 262.873C366.928 261.653 368.17 257.171 368.309 252.099C369.873 254.988 370.739 259.758 372.351 261.897C374.345 257.607 373.84 251.708 374.04 246.895C374.578 236.69 379.459 223.373 385.297 215.142C391.438 205.813 398.721 197.851 407.751 191.306C412.182 188.221 420.187 180.394 426.184 180.486C416.309 188.627 416.249 202.426 417.861 213.985C405.043 203.21 406.834 231.561 407.474 236.738C395.371 244.217 384.1 249.093 378.452 263.313L377.179 265.347Z" fill="black" fill-opacity="0.6"/>
<path d="M235.632 211.53C235.292 219.025 235.436 226.052 225.913 227.706C217.884 228.88 215.015 223.042 209.838 219.338L209.347 219.229C202.092 215.437 195.709 214.457 187.466 217.045C183.623 204.681 169.652 193.922 158.986 203.341C149.267 186.764 138.895 177.915 119.799 174.801L118 173.846C159.24 165.456 183.437 189.56 212.164 213.862L212.181 212.911C211.508 209.78 210.835 206.649 210.219 203.489C213.153 207.626 214.865 210.801 220.35 209.056C225.38 207.836 226.622 203.355 226.762 198.283C228.325 201.171 229.191 205.942 230.803 208.081C232.798 203.79 232.293 197.892 232.493 193.078C233.03 182.873 237.912 169.557 243.749 161.326C249.891 151.996 257.173 144.034 266.203 137.489C270.634 134.405 278.639 126.577 284.637 126.669C274.762 134.81 274.701 148.61 276.314 160.168C263.496 149.394 265.286 177.745 265.927 182.921C253.823 190.401 242.553 195.276 236.904 209.497L235.632 211.53Z" fill="#333333"/>
<path d="M235.632 211.53C235.292 219.025 235.436 226.052 225.913 227.706C217.884 228.88 215.015 223.042 209.838 219.338L209.347 219.229C202.092 215.437 195.709 214.457 187.466 217.045C183.623 204.681 169.652 193.922 158.986 203.341C149.267 186.764 138.895 177.915 119.799 174.801L118 173.846C159.24 165.456 183.437 189.56 212.164 213.862L212.181 212.911C211.508 209.78 210.835 206.649 210.219 203.489C213.153 207.626 214.865 210.801 220.35 209.056C225.38 207.836 226.622 203.355 226.762 198.283C228.325 201.171 229.191 205.942 230.803 208.081C232.798 203.79 232.293 197.892 232.493 193.078C233.03 182.873 237.912 169.557 243.749 161.326C249.891 151.996 257.173 144.034 266.203 137.489C270.634 134.405 278.639 126.577 284.637 126.669C274.762 134.81 274.701 148.61 276.314 160.168C263.496 149.394 265.286 177.745 265.927 182.921C253.823 190.401 242.553 195.276 236.904 209.497L235.632 211.53Z" fill="black" fill-opacity="0.6"/>
<path d="M225.281 310.712C225.077 315.238 225.158 319.471 219.376 320.499C214.512 321.198 212.768 317.679 209.656 315.445L209.338 315.391C204.956 313.088 201.085 312.477 196.088 314.042C193.747 306.555 185.306 300.043 178.832 305.776C172.913 295.715 166.678 290.383 155.122 288.522L154.02 287.932C178.982 282.872 193.635 297.483 210.999 312.143L210.992 311.567C210.594 309.671 210.195 307.775 209.768 305.822C211.557 308.304 212.561 310.249 215.864 309.197C218.882 308.436 219.685 305.775 219.762 302.691C220.735 304.436 221.203 307.31 222.257 308.65C223.465 306.07 223.133 302.473 223.299 299.562C223.598 293.393 226.555 285.345 230.097 280.4C233.863 274.761 238.185 269.921 243.701 265.987C246.389 264.165 251.173 259.376 254.836 259.442C248.87 264.333 248.829 272.688 249.781 279.732C242.06 273.211 243.136 290.336 243.463 293.501C236.138 298.006 229.342 301.007 225.93 309.58L225.281 310.712Z" fill="#333333"/>
<path d="M225.281 310.712C225.077 315.238 225.158 319.471 219.376 320.499C214.512 321.198 212.768 317.679 209.656 315.445L209.338 315.391C204.956 313.088 201.085 312.477 196.088 314.042C193.747 306.555 185.306 300.043 178.832 305.776C172.913 295.715 166.678 290.383 155.122 288.522L154.02 287.932C178.982 282.872 193.635 297.483 210.999 312.143L210.992 311.567C210.594 309.671 210.195 307.775 209.768 305.822C211.557 308.304 212.561 310.249 215.864 309.197C218.882 308.436 219.685 305.775 219.762 302.691C220.735 304.436 221.203 307.31 222.257 308.65C223.465 306.07 223.133 302.473 223.299 299.562C223.598 293.393 226.555 285.345 230.097 280.4C233.863 274.761 238.185 269.921 243.701 265.987C246.389 264.165 251.173 259.376 254.836 259.442C248.87 264.333 248.829 272.688 249.781 279.732C242.06 273.211 243.136 290.336 243.463 293.501C236.138 298.006 229.342 301.007 225.93 309.58L225.281 310.712Z" fill="black" fill-opacity="0.6"/>
<path d="M527.094 253.251C526.89 257.777 527.001 262.068 521.189 263.039C516.325 263.738 514.581 260.218 511.468 257.984L511.151 257.931C506.769 255.627 502.898 255.017 497.901 256.582C495.56 249.094 487.119 242.582 480.615 248.258C474.726 238.255 468.461 232.866 456.906 231.004L455.803 230.414C480.766 225.355 495.419 239.965 512.782 254.625L512.775 254.049C512.377 252.153 511.979 250.257 511.638 248.331C513.427 250.813 514.431 252.759 517.734 251.706C520.752 250.946 521.555 248.285 521.632 245.201C522.605 246.945 523.073 249.82 524.128 251.159C525.306 248.522 525.06 244.953 525.169 242.071C525.468 235.903 528.482 227.825 531.938 222.853C535.79 217.241 540.17 212.371 545.656 208.38C548.344 206.558 553.129 201.769 556.791 201.835C550.825 206.726 550.784 215.081 551.736 222.126C544.015 215.604 545.091 232.73 545.418 235.894C538.093 240.4 531.297 243.401 527.886 251.973L527.094 253.251Z" fill="#333333"/>
<path d="M527.094 253.251C526.89 257.777 527.001 262.068 521.189 263.039C516.325 263.738 514.581 260.218 511.468 257.984L511.151 257.931C506.769 255.627 502.898 255.017 497.901 256.582C495.56 249.094 487.119 242.582 480.615 248.258C474.726 238.255 468.461 232.866 456.906 231.004L455.803 230.414C480.766 225.355 495.419 239.965 512.782 254.625L512.775 254.049C512.377 252.153 511.979 250.257 511.638 248.331C513.427 250.813 514.431 252.759 517.734 251.706C520.752 250.946 521.555 248.285 521.632 245.201C522.605 246.945 523.073 249.82 524.128 251.159C525.306 248.522 525.06 244.953 525.169 242.071C525.468 235.903 528.482 227.825 531.938 222.853C535.79 217.241 540.17 212.371 545.656 208.38C548.344 206.558 553.129 201.769 556.791 201.835C550.825 206.726 550.784 215.081 551.736 222.126C544.015 215.604 545.091 232.73 545.418 235.894C538.093 240.4 531.297 243.401 527.886 251.973L527.094 253.251Z" fill="black" fill-opacity="0.6"/>
<path d="M445.446 351.629C445.242 356.154 445.323 360.388 439.541 361.416C434.677 362.115 432.933 358.595 429.82 356.361L429.503 356.308C425.121 354.005 421.25 353.394 416.253 354.959C413.912 347.472 405.471 340.96 398.967 346.636C393.048 336.575 386.813 331.243 375.258 329.382L374.155 328.792C399.118 323.732 413.77 338.342 431.134 353.002L431.127 352.426C430.729 350.53 430.331 348.634 429.903 346.681C431.692 349.163 432.696 351.109 436.056 350.027C439.074 349.266 439.877 346.605 439.955 343.521C440.928 345.266 441.396 348.14 442.45 349.48C443.658 346.9 443.325 343.303 443.491 340.392C443.79 334.223 446.747 326.175 450.29 321.23C454.055 315.591 458.378 310.751 463.894 306.817C466.581 304.995 471.366 300.206 475.086 300.243C469.063 305.163 469.022 313.518 470.03 320.533C462.31 314.011 463.329 331.166 463.77 334.271C456.445 338.777 449.649 341.778 446.18 350.38L445.446 351.629Z" fill="#333333"/>
<path d="M445.446 351.629C445.242 356.154 445.323 360.388 439.541 361.416C434.677 362.115 432.933 358.595 429.82 356.361L429.503 356.308C425.121 354.005 421.25 353.394 416.253 354.959C413.912 347.472 405.471 340.96 398.967 346.636C393.048 336.575 386.813 331.243 375.258 329.382L374.155 328.792C399.118 323.732 413.77 338.342 431.134 353.002L431.127 352.426C430.729 350.53 430.331 348.634 429.903 346.681C431.692 349.163 432.696 351.109 436.056 350.027C439.074 349.266 439.877 346.605 439.955 343.521C440.928 345.266 441.396 348.14 442.45 349.48C443.658 346.9 443.325 343.303 443.491 340.392C443.79 334.223 446.747 326.175 450.29 321.23C454.055 315.591 458.378 310.751 463.894 306.817C466.581 304.995 471.366 300.206 475.086 300.243C469.063 305.163 469.022 313.518 470.03 320.533C462.31 314.011 463.329 331.166 463.77 334.271C456.445 338.777 449.649 341.778 446.18 350.38L445.446 351.629Z" fill="black" fill-opacity="0.6"/>
<path d="M152.441 368.094C152.384 370.515 152.383 372.762 149.334 373.321C146.715 373.731 145.798 371.813 144.169 370.625L143.995 370.57C141.702 369.362 139.652 369.044 136.952 369.858C135.692 365.871 131.209 362.388 127.787 365.458C124.665 360.113 121.315 357.278 115.132 356.266L114.552 355.986C127.867 353.243 135.661 361.031 144.955 368.915L144.951 368.627C144.708 367.593 144.551 366.587 144.308 365.553C145.276 366.865 145.807 367.895 147.559 367.353C149.169 366.957 149.584 365.511 149.621 363.898C150.094 364.813 150.402 366.393 150.957 367.048C151.603 365.628 151.436 363.758 151.503 362.201C151.693 358.915 153.255 354.631 155.125 351.926C157.135 348.932 159.496 346.337 162.411 344.252C163.84 343.225 166.404 340.742 168.364 340.744C165.226 343.379 165.194 347.816 165.672 351.554C161.564 348.095 162.138 357.219 162.361 358.916C158.44 361.302 154.827 362.877 153.01 367.511L152.441 368.094Z" fill="#333333"/>
<path d="M152.441 368.094C152.384 370.515 152.383 372.762 149.334 373.321C146.715 373.731 145.798 371.813 144.169 370.625L143.995 370.57C141.702 369.362 139.652 369.044 136.952 369.858C135.692 365.871 131.209 362.388 127.787 365.458C124.665 360.113 121.315 357.278 115.132 356.266L114.552 355.986C127.867 353.243 135.661 361.031 144.955 368.915L144.951 368.627C144.708 367.593 144.551 366.587 144.308 365.553C145.276 366.865 145.807 367.895 147.559 367.353C149.169 366.957 149.584 365.511 149.621 363.898C150.094 364.813 150.402 366.393 150.957 367.048C151.603 365.628 151.436 363.758 151.503 362.201C151.693 358.915 153.255 354.631 155.125 351.926C157.135 348.932 159.496 346.337 162.411 344.252C163.84 343.225 166.404 340.742 168.364 340.744C165.226 343.379 165.194 347.816 165.672 351.554C161.564 348.095 162.138 357.219 162.361 358.916C158.44 361.302 154.827 362.877 153.01 367.511L152.441 368.094Z" fill="black" fill-opacity="0.6"/>
</svg>
