<svg width="391" height="444" viewBox="0 0 391 444" fill="none" xmlns="http://www.w3.org/2000/svg">
<path d="M52.903 96.1061C52.986 96.1061 53.069 96.1964 53.152 96.1964C53.6501 96.4672 54.1482 96.738 54.5633 97.099L58.2161 95.4742L56.4727 99.8071C56.7218 100.529 56.8878 101.251 56.8878 101.974L75.4009 96.3769C75.4009 96.3769 94.9932 106.758 94.3291 119.215C94.3291 119.215 82.8726 103.779 74.8198 105.133C74.8198 105.133 55.8916 110.459 49.4162 110.73C43.8539 106.938 29.8238 92.2245 29.8238 92.2245C23.4314 86.7181 6.49572 93.9396 6.49572 93.9396C11.5598 82.7462 33.3106 84.2808 33.3106 84.2808L46.8426 99.085C47.1747 98.4531 47.5898 97.8212 48.1709 97.3698L48.586 92.6758L50.9935 96.0158C51.4916 95.9255 52.0728 95.9255 52.6539 95.9255C52.6539 96.0158 52.8199 96.0158 52.903 96.1061Z" fill="#FE772D"/>
<path d="M84.6159 416.021C84.699 416.021 84.699 415.931 84.782 415.931C85.1141 415.75 85.5291 415.57 85.8612 415.479L86.6084 412.5L88.1027 415.479C88.6008 415.66 89.0159 415.84 89.431 416.201L94.6611 402.3C94.6611 402.3 108.691 394.808 114.918 400.675C114.918 400.675 101.801 400.946 98.9781 406.452C98.9781 406.452 93.4159 420.444 90.6763 424.597C86.2763 426.402 72.4122 428.478 72.4122 428.478C66.684 430.013 63.0312 443.643 63.0312 443.643C59.4614 435.609 69.8387 422.881 69.8387 422.881L83.5367 421.076C83.3707 420.625 83.2046 420.083 83.2046 419.541L80.9631 417.194H83.7857C83.9518 416.833 84.2008 416.472 84.4499 416.201C84.5329 416.111 84.5329 416.111 84.6159 416.021Z" fill="#333333"/>
<path d="M19.6126 24.9741C20.1937 24.8838 20.6918 24.2519 20.8579 23.0784C20.9409 23.8006 21.1069 24.7033 21.1899 25.4254C23.5145 18.2941 28.1635 12.1558 35.8011 12.878C33.0615 13.7807 31.8163 17.0304 30.8201 19.7384C27.2503 17.2109 26.3371 21.6341 26.005 24.4325C24.4276 23.7103 23.0163 24.8838 22.1031 26.2378V26.5087C22.2692 28.0432 21.356 29.2167 20.1937 29.307C19.1145 29.6681 17.8692 28.9459 17.5371 27.4114L17.4541 27.1405C16.2088 26.2378 14.5485 25.606 13.3032 26.8697C12.1409 24.2519 9.89944 20.4606 7.32587 24.1616C5.58248 21.9049 3.34101 19.2871 0.601406 19.4676C7.57494 16.0374 13.8013 20.0995 18.2013 26.0573C18.0352 25.3352 17.8692 24.4325 17.7862 23.8006C18.2843 24.7033 19.0314 25.0643 19.6126 24.9741Z" fill="#333333"/>
<path d="M22.8503 129.325C23.5144 129.145 24.0125 128.423 24.0956 127.069C24.2616 127.881 24.5106 128.874 24.6767 129.596C26.5031 121.291 31.0691 113.799 39.703 113.709C36.7974 115.063 35.6351 118.854 34.8879 122.014C30.654 119.667 29.9898 124.631 29.9898 127.881C28.0804 127.339 26.6691 128.784 25.8389 130.318L25.922 130.589C26.3371 132.304 25.4238 133.749 24.0956 133.929C22.8503 134.471 21.439 133.749 20.9408 132.124L20.8578 131.853C19.3635 130.95 17.4541 130.499 16.1258 132.124C14.5485 129.325 11.6428 125.353 9.15227 129.777C6.99379 127.52 4.17116 124.812 1.09948 125.354C8.57113 120.659 16.0428 124.451 21.522 130.499C21.2729 129.777 21.0239 128.784 20.7748 127.971C21.439 129.235 22.2691 129.596 22.8503 129.325Z" fill="#333333"/>
<path d="M41.6956 163.628C41.9446 163.447 42.0276 163.086 41.8616 162.635C42.0276 162.906 42.1937 163.267 42.3597 163.537C42.1107 160.107 42.9409 156.677 46.2616 155.413C45.2654 156.316 45.3484 157.941 45.4314 159.295C43.522 159.024 43.8541 161.01 44.2691 162.183C43.522 162.183 43.1069 162.996 42.9409 163.718L43.0239 163.808C43.3559 164.44 43.1899 165.072 42.6918 165.343C42.2767 165.704 41.6126 165.614 41.2805 165.072L41.1975 164.982C40.5333 164.891 39.7861 164.982 39.4541 165.704C38.5409 164.891 36.9635 163.718 36.5484 165.794C35.4692 165.253 34.0579 164.621 32.9786 165.253C35.3032 162.364 38.5409 162.815 41.3635 164.35C41.1975 164.079 40.9484 163.718 40.7824 163.537C41.1145 163.808 41.5295 163.808 41.6956 163.628Z" fill="#333333"/>
<path d="M158.087 14.7734C158.336 14.6832 158.585 14.4124 158.668 13.8708C158.751 14.1416 158.834 14.5929 158.834 14.954C159.747 11.614 161.74 8.63513 165.227 8.81567C163.981 9.26701 163.483 10.8016 163.068 12.0654C161.408 10.9821 160.993 13.0583 160.993 14.3221C160.246 14.0513 159.664 14.5929 159.249 15.2248V15.3151C159.415 16.0372 159 16.5788 158.419 16.6691C157.921 16.8496 157.34 16.5788 157.174 15.8567V15.7664C156.593 15.4053 155.846 15.1345 155.264 15.7664C154.683 14.5929 153.604 12.8778 152.442 14.6832C151.612 13.6902 150.532 12.607 149.204 12.6973C152.359 10.8919 155.264 12.6973 157.423 15.2248C157.34 14.954 157.257 14.5026 157.174 14.2318C157.506 14.6832 157.838 14.8637 158.087 14.7734Z" fill="#333333"/>
<path d="M235.543 108.202C237.702 109.015 240.607 107.932 243.098 104.231C242.268 106.758 241.105 110.188 240.275 112.806C260.283 92.5858 286.433 80.5799 311.754 98.1825C300.962 95.9258 290.999 104.592 283.196 112.174C275.06 96.4674 264.434 109.737 258.705 119.035C254.305 113.438 247.664 114.702 242.351 117.5L242.102 118.313C240.192 124.09 235.045 126.347 230.894 124.18C226.411 123.368 223.423 118.132 225 112.355L225.249 111.452C222.426 105.855 217.694 100.529 211.136 102.245C211.551 90.9609 210.14 73.5389 195.03 81.0313C192.789 69.9282 189.385 56.5683 179.423 51.5132C209.392 53.4088 224.087 79.8578 229.4 109.015C230.064 106.397 231.06 102.877 231.724 100.259C231.641 104.772 233.385 107.48 235.543 108.202Z" fill="#333333"/>
<path d="M293.324 22.717C293.656 22.1754 293.739 21.2727 293.075 20.1895C293.573 20.6408 294.32 21.2727 294.818 21.8143C291.913 14.322 291.581 5.92691 298.139 0.510742C296.562 3.3091 297.724 6.91987 298.72 9.8085C294.237 10.6209 296.396 14.7733 298.056 17.3009C296.313 18.023 295.981 19.9187 296.147 21.7241L296.313 21.9046C297.475 22.9878 297.558 24.6127 296.645 25.6057C295.981 26.7792 294.486 27.1402 293.324 26.1473L293.158 25.9667C291.581 26.2375 289.837 27.05 289.671 29.0359C287.098 27.8624 282.781 26.5986 283.113 31.4732C280.207 31.0218 276.72 30.6607 274.645 33.0077C277.966 24.7932 285.52 23.2586 292.909 24.5224C292.328 24.0711 291.664 23.5295 291.083 23.0781C292.079 23.4392 292.909 23.2586 293.324 22.717Z" fill="#333333"/>
<path d="M337.656 97.0086C338.237 97.3696 339.15 97.1891 340.063 96.1961C339.731 96.9183 339.233 97.9113 338.818 98.6334C345.709 93.6686 354.093 91.5021 360.818 98.0918C357.663 96.828 354.342 98.9042 351.686 100.71C349.942 95.5643 346.207 98.9945 344.048 101.432C342.969 99.5361 340.976 99.5361 339.233 100.078L339.15 100.349C338.32 101.973 336.66 102.334 335.58 101.522C334.252 101.071 333.588 99.3556 334.335 97.6405L334.418 97.3696C333.837 95.5643 332.675 93.6686 330.599 93.8491C331.263 90.5092 331.595 85.1833 326.78 86.6276C326.614 83.1973 326.199 79.0449 323.46 76.9688C332.343 79.1352 335.497 87.8011 335.746 96.828C336.078 96.1059 336.494 95.1129 336.826 94.3908C336.66 95.7448 337.075 96.6475 337.656 97.0086Z" fill="#333333"/>
<path d="M89.9291 110.91C90.3442 111.271 91.0913 111.181 91.8385 110.549C91.5064 111.091 91.0913 111.723 90.7593 112.264C96.3215 109.105 102.714 108.112 107.363 113.618C105.121 112.445 102.382 113.709 100.306 114.882C99.3932 110.91 96.3215 113.167 94.4951 114.792C93.8309 113.257 92.2536 113.167 90.9253 113.348L90.8423 113.528C90.0951 114.702 88.8498 114.882 88.0197 114.07C87.1065 113.618 86.6914 112.264 87.3555 111.091L87.4385 110.91C87.1065 109.466 86.3593 108.022 84.865 107.931C85.5291 105.494 86.1932 101.522 82.4574 102.245C82.5404 99.6267 82.5405 96.4673 80.631 94.6619C87.1895 97.0089 88.9329 103.869 88.5178 110.64C88.8499 110.098 89.1819 109.376 89.514 108.834C89.2649 109.917 89.514 110.64 89.9291 110.91Z" fill="#333333"/>
<path d="M376.84 103.057C377.172 103.418 377.754 103.599 378.501 103.328C378.086 103.689 377.505 104.14 377.089 104.411C382.735 103.509 388.38 104.682 390.87 110.82C389.293 109.105 386.637 109.376 384.561 109.647C384.81 105.946 381.655 106.939 379.663 107.751C379.497 106.217 378.252 105.675 377.006 105.494L376.84 105.585C375.927 106.307 374.765 106.036 374.35 105.224C373.686 104.502 373.686 103.238 374.599 102.425L374.765 102.335C374.848 100.981 374.599 99.5367 373.354 98.9951C374.599 97.0994 376.176 93.94 372.856 93.3984C373.603 91.2319 374.433 88.5238 373.271 86.4476C378.169 90.5098 377.92 96.8286 375.761 102.425C376.176 102.064 376.674 101.613 377.089 101.252C376.591 101.974 376.591 102.696 376.84 103.057Z" fill="#333333"/>
<path d="M306.856 171.842C307.686 171.391 308.267 170.217 308.018 168.321C308.433 169.314 309.014 170.668 309.43 171.661C309.928 159.565 314.328 147.921 326.282 145.122C322.546 147.83 321.965 153.427 321.633 158.121C315.158 156.045 315.573 163.266 316.32 167.78C313.58 167.509 312.003 169.946 311.173 172.384L311.339 172.745C312.335 175.001 311.422 177.258 309.596 177.89C308.101 179.064 305.86 178.432 304.78 176.265L304.614 175.904C302.29 175.182 299.55 175.092 298.139 177.619C295.316 174.189 290.252 169.585 287.845 176.446C284.275 173.918 279.792 171.12 275.558 172.745C284.773 163.989 295.981 167.058 305.196 173.918C304.697 172.925 304.033 171.661 303.535 170.668C304.78 172.113 305.943 172.384 306.856 171.842Z" fill="#333333"/>
<path d="M369.95 10.8016C370.199 10.8919 370.531 10.7114 370.78 10.1697C370.697 10.4405 370.614 10.8919 370.614 11.253C372.606 8.54489 375.512 6.64923 378.667 8.27408C377.421 8.18381 376.342 9.44759 375.595 10.4405C374.433 8.72543 373.354 10.4405 372.855 11.7043C372.191 11.0724 371.444 11.3432 370.863 11.7946V11.8849C370.697 12.607 370.116 12.9681 369.618 12.7876C369.037 12.7876 368.622 12.2459 368.705 11.5238V11.4335C368.289 10.8016 367.625 10.26 366.878 10.6211C366.712 9.26705 366.297 7.28112 364.637 8.45462C364.305 7.10058 363.723 5.566 362.478 5.20492C366.048 4.84384 368.123 7.73247 369.203 10.9822C369.286 10.7114 369.286 10.26 369.369 9.9892C369.452 10.4405 369.701 10.8016 369.95 10.8016Z" fill="#333333"/>
</svg>
