<svg width="41" height="41" viewBox="0 0 41 41" fill="none" xmlns="http://www.w3.org/2000/svg">
<path d="M29.952 31.1528C28.8705 31.1663 27.7962 30.9757 26.7853 30.5911C25.8796 30.239 25.0613 29.6942 24.387 28.9945C23.7227 28.2795 23.2096 27.4376 22.8786 26.5195C22.5152 25.5038 22.3351 24.4315 22.347 23.3528C22.3392 22.2927 22.5245 21.24 22.8936 20.2461C23.2378 19.3194 23.7675 18.4727 24.4503 17.7578C25.135 17.0518 25.9531 16.4887 26.857 16.1011C27.8361 15.687 28.8906 15.4809 29.9536 15.4961C31.0961 15.4717 32.2275 15.7233 33.252 16.2295C34.1664 16.6985 34.9594 17.3735 35.5686 18.2011C36.1832 19.0466 36.6265 20.004 36.8736 21.0195C37.1434 22.0991 37.2396 23.2147 37.1586 24.3245H26.4403C26.3977 25.3786 26.7589 26.4093 27.4503 27.2061C28.1766 27.8432 29.1262 28.1658 30.0903 28.1028C30.8475 28.1205 31.5916 27.9034 32.2203 27.4811C32.7195 27.1764 33.1026 26.7136 33.3086 26.1661H36.9003C36.4932 27.714 35.5568 29.0703 34.2536 29.9995C32.9638 30.7972 31.4679 31.1983 29.952 31.1528ZM29.837 18.5795C29.2769 18.5584 28.7201 18.6728 28.2136 18.9128C27.8176 19.1125 27.4661 19.3903 27.1803 19.7295C26.9289 20.0376 26.7429 20.3937 26.6336 20.7761C26.5374 21.0948 26.4754 21.4227 26.4486 21.7545H33.0853C33.0375 20.8902 32.7079 20.0654 32.147 19.4061C31.5262 18.8201 30.6886 18.5204 29.837 18.5795ZM13.787 30.7661H3.83698V10.2578H13.5036C14.3991 10.25 15.293 10.3366 16.1703 10.5161C16.9134 10.6612 17.6214 10.9487 18.2553 11.3628C18.8278 11.7602 19.2872 12.2995 19.5886 12.9278C19.9214 13.6847 20.0808 14.5064 20.0553 15.3328C20.0914 16.2471 19.8491 17.1509 19.3603 17.9245C18.8255 18.663 18.1027 19.2448 17.267 19.6095C18.4025 19.8933 19.4006 20.5707 20.0836 21.5211C20.7181 22.4992 21.0391 23.6475 21.0036 24.8128C21.0278 25.7448 20.8229 26.6685 20.407 27.5028C20.0231 28.2428 19.4662 28.8792 18.7836 29.3578C18.076 29.8502 17.2857 30.2115 16.4503 30.4245C15.5783 30.6535 14.6803 30.7689 13.7786 30.7678L13.787 30.7661ZM8.35364 21.6278V27.2778H13.1703C13.596 27.2824 14.0209 27.2394 14.437 27.1495C14.8179 27.0759 15.1805 26.9275 15.5036 26.7128C15.8148 26.5082 16.0675 26.2262 16.237 25.8945C16.4335 25.4784 16.5261 25.0209 16.507 24.5611C16.5878 23.708 16.2572 22.8674 15.617 22.2978C14.9262 21.8223 14.0978 21.5879 13.2603 21.6311L8.35364 21.6278ZM8.35364 13.7528V18.5445H12.9236C13.6306 18.5723 14.3275 18.3706 14.9103 17.9695C15.4597 17.5132 15.749 16.8156 15.6836 16.1045C15.6977 15.6963 15.6107 15.2909 15.4303 14.9245C15.2674 14.6282 15.0272 14.3817 14.7353 14.2111C14.4279 14.0289 14.0885 13.9072 13.7353 13.8528C13.3507 13.7807 12.9599 13.7467 12.5686 13.7511L8.35364 13.7528ZM33.922 13.6595H25.6053V11.6345H33.922V13.6578V13.6595Z" fill="#E6EAEE"/>
</svg>
