<svg width="41" height="41" viewBox="0 0 41 41" fill="none" xmlns="http://www.w3.org/2000/svg">
<path d="M15.412 37.373C12.6372 37.3945 10.1515 35.6605 9.2137 33.0488C8.27587 30.4372 9.0906 27.518 11.2454 25.7695C9.71702 24.5325 8.82906 22.6715 8.82906 20.7053C8.82906 18.7392 9.71702 16.8781 11.2454 15.6412C9.08991 13.8932 8.27469 10.9739 9.21269 8.3621C10.1507 5.75033 12.637 4.0167 15.412 4.03928H25.5954C28.3704 4.0167 30.8567 5.75033 31.7947 8.3621C32.7327 10.9739 31.9175 13.8932 29.762 15.6412C31.9168 17.3897 32.7315 20.3088 31.7937 22.9205C30.8558 25.5322 28.3702 27.2662 25.5954 27.2445C24.3137 27.2461 23.0595 26.873 21.987 26.1712V30.8378C21.9714 34.4562 19.0304 37.3793 15.412 37.373ZM15.3754 27.2462C13.4012 27.2773 11.8232 28.8974 11.8439 30.8717C11.8646 32.8459 13.4763 34.4326 15.4506 34.4224C17.4249 34.4121 19.0201 32.8089 19.0204 30.8345V27.2462H15.3737H15.3754ZM25.597 17.1178C23.6177 17.1279 22.0203 18.739 22.027 20.7183C22.0338 22.6977 23.642 24.2978 25.6214 24.2945C27.6008 24.2911 29.2037 22.6856 29.2037 20.7062C29.1963 18.7196 27.5819 17.1141 25.5954 17.1178H25.597ZM15.4137 17.1178C14.1317 17.111 12.9434 17.7886 12.2965 18.8954C11.6496 20.0022 11.6423 21.3701 12.2773 22.4837C12.9124 23.5974 14.0934 24.2877 15.3754 24.2945H19.0204V17.1178H15.4137ZM21.987 6.9895V14.1679H25.5937C27.5229 14.1768 29.1146 12.6602 29.1987 10.7328V11.4578V10.5778C29.1904 8.59363 27.5796 6.9895 25.5954 6.9895H21.987ZM15.4104 6.9895C14.1284 6.9895 12.9438 7.67343 12.3028 8.78367C11.6618 9.8939 11.6618 11.2618 12.3028 12.372C12.9438 13.4822 14.1284 14.1662 15.4104 14.1662H19.0204V6.9895H15.4104Z" fill="#E6EAEE"/>
</svg>
