<svg width="152" height="635" viewBox="0 0 152 635" fill="none" xmlns="http://www.w3.org/2000/svg">
<path d="M421.2 234.35C424.331 222.323 426 209.205 426 194.882C426 141.477 403.094 101.03 365.902 73.6367C331.246 28.9665 275.658 0 213.008 0C150.358 0 94.7701 28.9665 60.0981 73.6527C22.906 101.03 0 141.477 0 194.882C0 209.205 1.66939 222.323 4.7995 234.35H4.78345C4.78345 234.35 4.71924 234.318 5.2329 235.971C6.32443 239.937 7.56042 243.791 8.95693 247.516C10.4658 252.092 12.5365 258.258 15.3295 266.56C16.7742 255.914 19.0054 247.564 19.1338 241.495C19.3104 232.76 31.9753 200.277 31.9753 200.277C19.4869 250.23 20.7229 274.122 20.9156 288.509C20.9156 288.509 20.9156 288.509 20.9156 288.525C23.5962 308.934 15.9716 316.4 14.848 317.813C13.4193 319.595 8.07408 332.441 8.07408 334.576C8.07408 336.712 15.5703 350.987 19.4869 354.551C23.4036 358.116 25.7953 358.084 35.0572 361.921C44.3352 365.775 44.592 373.835 44.592 373.835C44.592 373.835 44.4476 380.595 43.7413 383.437C43.035 386.296 44.0944 387.725 47.6579 393.425C48.3161 394.469 49.2952 395.384 50.467 396.203C52.8587 402.834 56.3259 415.92 59.0708 440.343C64.5445 488.899 46.4701 469.663 63.5814 515.312C82.2657 565.137 94.0157 580.037 105.429 582.35C116.841 584.662 161.08 626.602 166.072 630.167C171.016 633.699 212.189 634.936 212.944 634.952H212.96H212.976C213.73 634.936 254.903 633.699 259.863 630.167C264.855 626.602 309.094 584.662 320.507 582.35C331.92 580.037 343.67 565.137 362.354 515.312C379.482 469.663 361.407 488.899 366.865 440.343C369.61 415.969 373.077 402.882 375.453 396.235C376.641 395.4 377.652 394.468 378.31 393.409C381.873 387.692 382.949 386.279 382.227 383.421C381.52 380.563 381.376 373.819 381.376 373.819C381.376 373.819 381.633 365.743 390.911 361.905C400.189 358.052 402.564 358.1 406.481 354.535C410.398 350.97 417.894 336.696 417.894 334.56C417.894 332.425 412.548 319.579 411.12 317.797C410.462 316.962 407.54 314.04 405.807 307.601C405.213 305.433 404.763 302.864 404.587 299.846C401.794 282.103 395.437 242.201 392.564 236.662C389.081 229.966 360.813 192.891 360.813 192.891C360.813 192.891 393.11 227.429 395.517 233.467C396.802 236.694 403.11 255.593 408.696 272.485C409.017 271.425 409.37 270.333 409.755 269.225C413.03 259.527 415.374 252.542 417.043 247.484C418.456 243.759 419.676 239.905 420.767 235.939C421.265 234.269 421.217 234.318 421.217 234.318L421.2 234.35ZM282.85 183.176C288.917 182.47 299.431 185.312 317.634 191.735C335.837 198.158 360.444 208.803 360.444 208.803C360.444 208.803 297.665 187.207 286.012 186.741C274.358 186.259 251.051 194.352 232.511 214.792C249.382 188.588 276.782 183.883 282.85 183.176ZM213.008 325.312C216.684 325.44 217.438 335.251 223.056 341.16C228.675 347.069 237.198 378.074 238.402 384.513C239.606 390.952 245.914 396.187 245.625 403.043C245.32 409.883 225.175 417.141 222.463 417.141C219.75 417.141 213.008 364.378 213.008 364.378C213.008 364.378 206.266 417.141 203.553 417.141C200.841 417.141 180.696 409.899 180.391 403.043C180.086 396.203 186.41 390.968 187.614 384.513C188.818 378.074 197.341 347.053 202.96 341.16C208.562 335.251 209.316 325.456 213.008 325.312ZM286.092 407.458C284.936 402.481 282.817 397.712 279.88 393.441C283.074 397.503 285.562 402.176 287.071 407.202C287.842 409.706 288.307 412.308 288.516 414.941L289.11 422.664C289.302 427.803 289.672 432.925 290.33 438.031C290.635 440.584 291.004 443.137 291.453 445.674C291.871 448.227 292.352 450.764 292.962 453.269C291.229 448.387 289.993 443.329 288.997 438.239C288.018 433.133 287.344 427.963 286.959 422.777C286.782 420.192 287.023 417.542 286.991 415.005C286.959 412.484 286.67 409.947 286.092 407.458ZM265.722 351.581C258.595 343.376 239.622 317.492 239.622 317.492C239.622 317.492 262.448 344.435 272.914 352.528C283.379 360.621 330.459 363.704 352.097 351.34C352.097 351.34 337.956 363.35 307.457 362.275C276.959 361.215 272.865 359.802 265.722 351.581ZM261.501 440.921C261.822 443.618 262.335 446.3 262.913 448.949C263.475 451.615 264.165 454.264 265.016 456.865C262.849 451.824 261.26 446.541 260.2 441.114C259.125 435.702 258.692 430.115 259.253 424.527C259.462 421.717 260.425 419.003 261.469 416.418C262.544 413.929 263.379 411.392 263.828 408.727C264.775 403.444 264.422 397.808 262.367 392.718C264.759 397.664 265.514 403.364 264.904 408.871C264.615 411.633 263.908 414.395 262.993 416.996C262.656 418.297 262.191 419.533 262.03 420.866C261.902 421.524 261.806 422.183 261.661 422.825C261.533 423.483 261.485 424.142 261.372 424.8C260.586 430.099 260.794 435.558 261.501 440.921ZM214.581 441.627C214.533 446.188 214.34 450.748 213.65 455.308C212.944 450.748 212.767 446.188 212.719 441.627C212.687 439.347 212.751 437.067 212.88 434.787C213.024 432.507 213.233 430.227 213.666 427.947C214.1 430.227 214.308 432.507 214.453 434.787C214.565 437.067 214.613 439.347 214.581 441.627ZM166.072 424.816C165.96 424.158 165.928 423.483 165.783 422.841C165.623 422.199 165.543 421.54 165.414 420.882C165.254 419.549 164.788 418.313 164.451 417.012C163.536 414.411 162.83 411.649 162.541 408.888C161.931 403.364 162.685 397.664 165.077 392.734C163.023 397.824 162.685 403.444 163.616 408.743C164.082 411.408 164.901 413.945 165.976 416.434C167.019 419.035 167.983 421.749 168.191 424.543C168.753 430.131 168.32 435.719 167.244 441.13C166.185 446.541 164.596 451.84 162.429 456.881C163.279 454.28 163.97 451.631 164.531 448.965C165.109 446.3 165.639 443.635 165.944 440.937C166.682 435.558 166.891 430.099 166.072 424.816ZM160.278 351.581C153.151 359.786 149.041 361.215 118.543 362.291C88.0444 363.366 73.9027 351.356 73.9027 351.356C95.5406 363.72 142.621 360.637 153.086 352.544C163.552 344.451 186.378 317.508 186.378 317.508C186.378 317.508 167.421 343.376 160.278 351.581ZM140.518 422.777C140.133 427.963 139.458 433.133 138.479 438.239C137.484 443.346 136.248 448.387 134.514 453.269C135.141 450.764 135.606 448.211 136.023 445.674C136.457 443.137 136.842 440.584 137.147 438.031C137.789 432.925 138.158 427.786 138.367 422.664L138.961 414.941C139.17 412.308 139.635 409.706 140.406 407.202C141.914 402.176 144.402 397.503 147.597 393.441C144.675 397.696 142.54 402.481 141.385 407.458C140.807 409.947 140.518 412.484 140.486 415.005C140.454 417.542 140.694 420.192 140.518 422.777ZM108.382 191.735C126.569 185.312 137.099 182.454 143.166 183.176C149.234 183.883 176.635 188.604 193.521 214.792C174.965 194.352 151.658 186.259 140.004 186.741C128.351 187.223 65.5718 208.803 65.5718 208.803C65.5718 208.803 90.1953 198.158 108.382 191.735ZM40.7717 216.848C40.7717 216.848 68.8303 148.815 68.8303 147.081C68.8303 145.347 67.8833 77.3137 67.8833 77.3137C67.8833 77.3137 75.1708 147.241 73.9027 147.723C72.6346 148.205 40.7717 216.848 40.7717 216.848ZM112.764 233.675C168.721 232.021 189.412 242.169 189.412 274.668C189.412 321.378 156.008 347.775 114.803 347.775C73.5977 347.775 53.4045 321.442 53.4045 288.943C53.4045 256.444 71.5752 234.88 112.764 233.675ZM157.95 570.516C157.244 569.504 156.457 568.557 155.574 567.69C153.841 565.94 151.915 564.366 149.924 562.873C145.943 559.886 141.818 557.028 137.934 553.817C134.033 550.637 130.341 547.089 127.371 542.946C125.927 540.843 124.691 538.611 123.728 536.25C122.797 533.89 122.155 531.417 121.898 528.912C123.198 533.762 125.509 538.193 128.575 542.047C131.609 545.917 135.237 549.289 139.041 552.484C142.845 555.663 146.874 558.634 150.711 561.893C152.621 563.531 154.531 565.201 156.152 567.16C157.758 569.087 159.202 571.335 159.507 573.872C159.17 572.667 158.608 571.559 157.95 570.516ZM157.822 538.675C159.427 542.095 161.995 544.728 164.788 547.073C167.581 549.417 170.663 551.456 173.713 553.576C176.763 555.695 179.893 557.799 182.734 560.336C184.163 561.588 185.495 562.969 186.619 564.543C187.71 566.116 188.625 567.866 188.898 569.745C187.453 566.245 184.564 563.852 181.659 561.652C178.705 559.485 175.559 557.51 172.461 555.422C169.363 553.335 166.281 551.119 163.552 548.422C160.888 545.74 158.48 542.432 157.822 538.675ZM236.171 586.059C228.129 584.292 219.958 583.152 211.756 582.912C203.553 582.623 195.335 583.249 187.213 584.582C185.19 584.919 183.152 585.256 181.145 585.738L178.127 586.412L175.126 587.183C171.097 588.146 167.164 589.447 163.199 590.667C166.987 588.949 170.856 587.424 174.805 586.091C176.779 585.417 178.769 584.822 180.792 584.309C182.798 583.73 184.837 583.281 186.876 582.831C195.046 581.049 203.457 580.326 211.82 580.567C220.199 580.84 228.53 582.109 236.588 584.26C244.662 586.38 252.463 589.415 259.928 593.043C252.11 590.25 244.197 587.857 236.171 586.059ZM253.539 555.406C250.441 557.494 247.295 559.469 244.341 561.636C241.436 563.836 238.547 566.229 237.102 569.729C237.375 567.85 238.306 566.1 239.381 564.526C240.505 562.969 241.853 561.588 243.266 560.32C246.107 557.783 249.237 555.679 252.287 553.56C255.337 551.44 258.419 549.401 261.212 547.057C263.989 544.712 266.573 542.079 268.178 538.659C267.52 542.416 265.128 545.724 262.448 548.389C259.719 551.087 256.637 553.303 253.539 555.406ZM302.288 536.25C301.325 538.595 300.089 540.843 298.645 542.946C295.675 547.105 291.983 550.637 288.082 553.817C284.198 557.028 280.073 559.886 276.092 562.873C274.101 564.366 272.175 565.94 270.441 567.69C269.559 568.557 268.772 569.504 268.066 570.516C267.408 571.559 266.846 572.667 266.525 573.888C266.83 571.367 268.275 569.119 269.88 567.176C271.501 565.217 273.427 563.547 275.321 561.909C279.158 558.65 283.187 555.679 286.991 552.5C290.779 549.305 294.423 545.933 297.457 542.063C300.523 538.225 302.818 533.778 304.134 528.929C303.861 531.417 303.219 533.89 302.288 536.25ZM360.011 403.798C359.626 403.798 350.572 402.722 344.103 401.951C337.57 424.19 342.161 421.524 343.349 432.893C344.778 446.637 343.349 464.525 332.642 487.341C332.642 487.341 349.096 462.26 349.433 423.355C349.433 423.355 351.038 456.127 343.718 475.748C338.325 490.215 328.389 495.016 323.525 496.542C320.026 499.496 315.419 502.9 309.576 506.385C308.886 516.035 304.552 519.054 300.555 519.391C298.259 519.583 294.937 518.829 292.288 514.991C292.224 515.023 292.16 515.039 292.079 515.071C290.731 523.758 286.108 526.616 281.854 526.986C279.238 527.21 275.498 526.375 272.48 522.393C271.87 524.866 271.003 527.146 269.912 529.041C267.777 532.782 264.968 534.837 261.966 534.837C259.911 534.837 258.114 534.003 256.765 532.397C255.369 530.759 254.582 528.334 254.165 525.653C253.844 525.701 253.523 525.749 253.202 525.797C250.072 532.573 245.625 539.012 242.254 538.643C239.445 538.338 237.198 533.521 235.641 527.981C235.144 528.029 234.646 528.077 234.148 528.11C231.66 536.154 227.439 544.504 223.57 544.504C219.686 544.504 215.929 536.491 213.522 528.929C213.329 528.929 213.152 528.929 212.96 528.929C212.334 528.929 211.74 528.912 211.114 528.912C208.706 536.475 204.934 544.504 201.065 544.504C197.181 544.504 192.927 536.074 190.455 527.981C189.99 527.949 189.492 527.917 189.027 527.869C187.47 533.473 185.206 538.322 182.381 538.643C178.962 539.012 174.468 532.445 171.321 525.573C171.048 525.524 170.76 525.476 170.487 525.444C170.085 528.206 169.299 530.711 167.87 532.397C166.522 533.986 164.724 534.837 162.669 534.837C159.684 534.837 156.859 532.782 154.724 529.041C153.648 527.146 152.765 524.866 152.172 522.393C149.154 526.375 145.414 527.194 142.781 526.97C138.463 526.6 133.808 523.678 132.508 514.718C129.827 518.748 126.424 519.583 124.081 519.375C119.988 519.021 115.541 515.842 115.028 505.582C108.88 501.808 104.176 498.148 100.757 495.113L100.773 495.129C70.6121 477.852 75.4597 426.261 75.4597 426.261C76.0697 457.957 88.3815 478.831 91.8326 484.066C82.4904 462.806 81.2384 445.947 82.6028 432.876C83.8227 421.155 88.6544 424.35 81.2063 399.815C75.1869 401.004 66.8078 402.625 66.0052 402.706C64.7532 402.818 57.2088 399.607 57.2088 399.607L65.7163 401.405L85.46 396.524C85.7008 396.443 85.9576 396.363 86.1824 396.299C86.5355 396.187 86.9368 396.106 87.3863 396.058C93.9033 395.32 110.437 400.939 110.437 400.939C110.437 400.939 116.151 418.297 116.151 421.396C116.151 424.495 118.768 430.195 110.918 440.359C103.069 450.523 110.918 464.524 110.918 464.524C111.576 464.797 112.283 465.086 112.973 465.343C116.167 457.909 121.304 456.592 124.627 456.881C127.933 457.17 131.433 458.985 133.455 463.85C135.959 461.859 138.64 461.458 140.646 461.634C143.937 461.923 147.42 463.722 149.443 468.523C151.128 466.821 153.022 465.905 155.013 465.905C157.067 465.905 158.865 466.74 160.213 468.346C161.466 469.807 162.204 471.911 162.637 474.239C166.586 466.403 172.477 465.022 176.362 465.375C180.712 465.761 185.335 468.25 187.726 475.106C190.824 463.754 197.004 461.634 201.162 461.634C206.218 461.634 211.981 464.46 214.79 475.684C217.84 463.834 224.148 461.634 228.37 461.634C233.298 461.634 238.9 464.316 241.789 474.833C244.213 468.169 248.788 465.761 253.089 465.375C256.974 465.022 262.865 466.403 266.798 474.239C267.231 471.911 267.986 469.807 269.222 468.346C270.57 466.756 272.368 465.905 274.422 465.905C276.397 465.905 278.307 466.821 279.976 468.523C282.015 463.722 285.498 461.939 288.789 461.65C290.795 461.474 293.46 461.875 295.98 463.85C298.003 458.985 301.518 457.186 304.825 456.897C307.858 456.625 312.385 457.7 315.595 463.529C317.201 460.141 321.679 448.917 315.082 440.375C307.232 430.211 309.849 424.495 309.849 421.412C309.849 418.313 315.563 400.955 315.563 400.955C315.563 400.955 334.472 394.533 339.818 396.315C339.994 396.379 340.219 396.443 340.428 396.508L360.268 401.421L371.793 399.976C371.793 399.992 360.621 403.798 360.011 403.798ZM372.612 288.943C372.612 321.426 352.418 347.775 311.213 347.775C270.008 347.775 236.604 321.378 236.604 274.668C236.604 242.185 257.279 232.037 313.252 233.675C354.425 234.88 372.612 256.444 372.612 288.943ZM393.19 206.25C393.19 206.25 366.56 151.063 365.597 147.113C364.65 143.163 364.168 88.136 364.168 88.136L368.213 146.31L394.843 204.355L399.835 216.864L393.19 206.25Z" fill="#333333" fill-opacity="0.6"/>
</svg>
