<svg width="41" height="41" viewBox="0 0 41 41" fill="none" xmlns="http://www.w3.org/2000/svg">
<path d="M20.507 35.7745C16.407 35.7745 15.9237 35.7528 14.3237 35.6828C13.076 35.6418 11.8444 35.3881 10.682 34.9328C8.67087 34.1501 7.08059 32.5593 6.29869 30.5478C5.86086 29.3812 5.62472 28.1486 5.60035 26.9028C5.50702 25.3061 5.50702 24.7828 5.50702 20.7145C5.50702 16.6028 5.52869 16.1228 5.60035 14.5311C5.62525 13.287 5.86139 12.0562 6.29869 10.8911C7.07974 8.87703 8.6726 7.28476 10.687 6.50448C11.8514 6.06481 13.0826 5.82805 14.327 5.80448C15.9187 5.71448 16.442 5.71448 20.507 5.71448C24.6404 5.71448 25.1154 5.73614 26.6904 5.80448C27.938 5.82826 29.1724 6.06499 30.3404 6.50448C32.3542 7.28565 33.9467 8.8776 34.7287 10.8911C35.1739 12.0731 35.4113 13.3232 35.4303 14.5861C35.5237 16.1828 35.5237 16.7045 35.5237 20.7711C35.5237 24.8378 35.5003 25.3711 35.4303 26.9495C35.4055 28.1965 35.1688 29.4302 34.7303 30.5978C33.9465 32.6107 32.3538 34.2021 30.3404 34.9845C29.1741 35.4215 27.9422 35.6576 26.697 35.6828C25.1054 35.7745 24.5837 35.7745 20.507 35.7745ZM20.4504 8.35281C16.3737 8.35281 15.9504 8.37281 14.3587 8.44448C13.4087 8.45706 12.4678 8.63238 11.577 8.96281C10.2616 9.46616 9.22073 10.5028 8.71202 11.8161C8.37904 12.7166 8.2037 13.6678 8.19369 14.6278C8.10535 16.2428 8.10535 16.6661 8.10535 20.7145C8.10535 24.7145 8.12035 25.1995 8.19369 26.8045C8.20861 27.7548 8.38385 28.6958 8.71202 29.5878C9.22148 30.9003 10.2622 31.9361 11.577 32.4395C12.4672 32.7721 13.4084 32.9475 14.3587 32.9578C15.972 33.0511 16.397 33.0511 20.4504 33.0511C24.5387 33.0511 24.962 33.0311 26.5404 32.9578C27.491 32.9462 28.4326 32.7709 29.3237 32.4395C30.6311 31.9318 31.6652 30.8983 32.1737 29.5911C32.506 28.6899 32.6813 27.7383 32.692 26.7778H32.7104C32.782 25.1845 32.782 24.7595 32.782 20.6878C32.782 16.6161 32.7637 16.1878 32.692 14.5961C32.6771 13.6469 32.5018 12.707 32.1737 11.8161C31.6664 10.5071 30.6321 9.47163 29.3237 8.96281C28.4328 8.63071 27.4911 8.45535 26.5404 8.44448C24.9287 8.35281 24.507 8.35281 20.4504 8.35281ZM20.507 28.4128C17.3903 28.4148 14.5794 26.539 13.3851 23.6602C12.1909 20.7814 12.8485 17.4667 15.0514 15.2619C17.2543 13.0571 20.5685 12.3966 23.4483 13.5884C26.3281 14.7801 28.2063 17.5895 28.207 20.7061C28.2024 24.9579 24.7588 28.4045 20.507 28.4128ZM20.507 15.7028C17.7456 15.7028 15.507 17.9414 15.507 20.7028C15.507 23.4642 17.7456 25.7028 20.507 25.7028C23.2684 25.7028 25.507 23.4642 25.507 20.7028C25.5006 17.944 23.2658 15.7092 20.507 15.7028ZM28.507 14.5145C27.5161 14.5108 26.7152 13.7055 26.717 12.7145C26.7189 11.7235 27.5227 10.9212 28.5137 10.9212C29.5047 10.9212 30.3085 11.7235 30.3104 12.7145C30.3108 13.1926 30.1208 13.6512 29.7825 13.9889C29.4441 14.3267 28.9851 14.5158 28.507 14.5145Z" fill="#E6EAEE"/>
</svg>
