<svg width="41" height="41" viewBox="0 0 41 41" fill="none" xmlns="http://www.w3.org/2000/svg">
<path d="M22.1703 35.7062H15.5037V15.7062H22.1703V19.0395C23.5914 17.2316 25.7464 16.1538 28.0453 16.1012C32.1797 16.1241 35.5157 19.4885 35.5037 23.6228V35.7062H28.837V24.4562C28.5704 22.5939 26.9733 21.2121 25.092 21.2162C24.2691 21.2422 23.4924 21.6025 22.9411 22.2139C22.3897 22.8253 22.1114 23.635 22.1703 24.4562V35.7062ZM12.1703 35.7062H5.50366V15.7062H12.1703V35.7062ZM8.837 12.3728C6.99605 12.3728 5.50366 10.8805 5.50366 9.03951C5.50366 7.19856 6.99605 5.70618 8.837 5.70618C10.6779 5.70618 12.1703 7.19856 12.1703 9.03951C12.1703 9.92356 11.8191 10.7714 11.194 11.3965C10.5689 12.0217 9.72105 12.3728 8.837 12.3728Z" fill="#E6EAEE"/>
</svg>
