<svg width="32" height="32" viewBox="0 0 32 32" fill="none" xmlns="http://www.w3.org/2000/svg">
<g id="vuesax/outline/location">
<g id="location">
<path id="Vector" d="M16 18.8933C13.16 18.8933 10.84 16.5867 10.84 13.7333C10.84 10.88 13.16 8.58667 16 8.58667C18.84 8.58667 21.16 10.8933 21.16 13.7467C21.16 16.6 18.84 18.8933 16 18.8933ZM16 10.5867C14.2667 10.5867 12.84 12 12.84 13.7467C12.84 15.4933 14.2534 16.9067 16 16.9067C17.7467 16.9067 19.16 15.4933 19.16 13.7467C19.16 12 17.7334 10.5867 16 10.5867Z" fill="#E6EAEE"/>
<path id="Vector_2" d="M16 30.3467C14.0267 30.3467 12.04 29.6 10.4933 28.12C6.55999 24.3333 2.21332 18.2933 3.85332 11.1067C5.33332 4.58667 11.0267 1.66667 16 1.66667C16 1.66667 16 1.66667 16.0133 1.66667C20.9867 1.66667 26.68 4.58667 28.16 11.12C29.7867 18.3067 25.44 24.3333 21.5067 28.12C19.96 29.6 17.9733 30.3467 16 30.3467ZM16 3.66667C12.12 3.66667 7.13332 5.73334 5.81332 11.5467C4.37332 17.8267 8.31999 23.24 11.8933 26.6667C14.2 28.8933 17.8133 28.8933 20.12 26.6667C23.68 23.24 27.6267 17.8267 26.2133 11.5467C24.88 5.73334 19.88 3.66667 16 3.66667Z" fill="#E6EAEE"/>
</g>
</g>
</svg>
