<svg width="517" height="739" viewBox="0 0 517 739" fill="none" xmlns="http://www.w3.org/2000/svg">
<path d="M284.83 709.915C284.48 709.915 284.129 709.721 283.934 709.331L131.386 374.743C131.152 374.275 131.386 373.691 131.854 373.457C132.321 373.224 132.906 373.457 133.14 373.925L285.726 708.513C285.96 708.981 285.726 709.565 285.259 709.798C285.103 709.876 284.947 709.915 284.83 709.915Z" fill="#333333"/>
<path d="M516.009 455.469C515.931 455.469 515.893 455.469 515.815 455.43L132.049 375.288C131.542 375.171 131.191 374.665 131.308 374.158C131.425 373.652 131.932 373.302 132.438 373.418L516.204 453.561C516.711 453.678 517.061 454.184 516.945 454.729C516.867 455.157 516.477 455.469 516.009 455.469Z" fill="#333333"/>
<path d="M132.243 375.327C132.048 375.327 131.854 375.249 131.659 375.132C131.23 374.82 131.152 374.197 131.464 373.769L365.566 59.4691C365.877 59.0407 366.501 58.9628 366.929 59.2744C367.358 59.5859 367.436 60.209 367.124 60.6373L133.023 374.937C132.828 375.171 132.555 375.327 132.243 375.327Z" fill="#333333"/>
<path d="M132.243 375.327C131.815 375.327 131.464 375.054 131.308 374.665L12.6598 1.25099C12.504 0.744746 12.7767 0.19956 13.2833 0.0437926C13.7898 -0.111975 14.3353 0.160618 14.4912 0.666863L133.179 374.081C133.334 374.587 133.062 375.132 132.555 375.288C132.438 375.288 132.36 375.327 132.243 375.327Z" fill="#333333"/>
<path d="M132.243 375.327C132.087 375.327 131.932 375.288 131.815 375.21L-217.117 196.544C-217.584 196.311 -217.779 195.727 -217.545 195.22C-217.311 194.753 -216.727 194.558 -216.22 194.792L132.711 373.457C133.179 373.691 133.373 374.275 133.14 374.781C132.945 375.132 132.594 375.327 132.243 375.327Z" fill="#333333"/>
<path d="M-253.042 447.252C-253.51 447.252 -253.9 446.941 -253.978 446.473C-254.094 445.928 -253.744 445.422 -253.198 445.344L132.087 373.418C132.633 373.302 133.139 373.652 133.217 374.197C133.295 374.742 132.984 375.249 132.438 375.327L-252.886 447.213C-252.925 447.252 -253.003 447.252 -253.042 447.252Z" fill="#333333"/>
<path d="M-159.059 637.405C-159.332 637.405 -159.604 637.289 -159.799 637.094C-160.15 636.704 -160.111 636.081 -159.721 635.731L131.581 373.652C131.971 373.302 132.594 373.341 132.945 373.73C133.295 374.119 133.256 374.742 132.867 375.093L-158.435 637.172C-158.591 637.289 -158.825 637.405 -159.059 637.405Z" fill="#333333"/>
<path d="M-13.4078 738.966C-13.5246 738.966 -13.6415 738.927 -13.7584 738.888C-14.265 738.693 -14.4988 738.109 -14.3039 737.642L131.347 374.003C131.542 373.496 132.126 373.263 132.594 373.457C133.101 373.652 133.334 374.236 133.14 374.704L-12.5116 738.343C-12.6674 738.732 -13.0181 738.966 -13.4078 738.966Z" fill="#333333"/>
<path d="M2.84065 697.493L2.60687 695.701C2.48997 694.689 -11.1088 595.387 -104.469 588.144L-105.521 588.066L-105.365 587.015C-105.248 586.236 -93.6756 509.637 -127.575 465.243C-141.174 447.447 -160.345 437.05 -184.542 434.363L-187.386 434.051L-184.932 432.571C-184.347 432.221 -124.887 395.615 -113.431 336.424C-106.963 303.128 -116.704 268.898 -142.343 234.708L-143.317 233.422L-141.758 233.15C-141.291 233.072 -95.468 225.206 -53.3468 194.013C-14.5377 165.274 28.9472 110.249 15.777 11.259L15.4653 8.80571L17.3746 10.3634C17.9591 10.8696 67.4446 51.486 132.594 80.7314C192.6 107.64 278.518 130.11 347.174 84.2751L349.629 82.6395L348.616 85.4044C348.421 85.9885 327.809 143.895 336.42 217.534C344.33 285.449 379.437 380.973 501.67 450.562L503.385 451.536L501.553 452.276C499.099 453.288 256.892 554.031 269.361 672.804L269.517 674.361L268.036 673.816C266.4 673.193 101.383 614.157 4.16548 696.363L2.84065 697.493ZM-103.261 586.353C-16.0963 593.752 2.0224 680.397 4.28236 693.793C97.6035 616.572 250.775 665.872 267.296 671.519C261.88 609.212 325.159 552.629 379.476 516.024C432.936 480.002 488.344 455.781 498.982 451.263C377.411 381.363 342.381 285.76 334.472 217.69C326.873 152.579 341.992 99.6571 345.888 87.4294C276.881 131.706 191.509 109.315 131.737 82.4837C73.5621 56.3537 27.7782 21.1503 18.1149 13.4787C30.3889 111.924 -13.2129 166.871 -52.1389 195.688C-90.2467 223.882 -131.394 233.189 -139.771 234.824C-114.483 269.054 -104.936 303.362 -111.444 336.852C-121.808 390.241 -170.476 425.406 -181.581 432.844C-158.085 436.076 -139.382 446.59 -125.939 464.153C-93.7535 506.366 -102.014 576.968 -103.261 586.353Z" fill="#333333"/>
<path d="M21.1152 651.892L20.8815 650.1C20.7646 649.244 9.46469 563.883 -71.3097 558.392L-72.3618 558.315L-72.2059 557.263C-72.089 556.601 -61.6853 491.412 -90.3636 453.094C-101.936 437.634 -118.379 428.521 -139.226 425.951L-142.031 425.601L-139.615 424.16C-139.109 423.848 -87.2074 391.955 -77.5051 340.98C-72.128 312.747 -80.5054 283.852 -102.443 255.113L-103.417 253.828L-101.819 253.594C-101.43 253.516 -62.7374 247.364 -26.8896 221.312C6.11371 197.323 43.4032 151.021 33.5061 66.7123L33.2333 64.2979L35.1036 65.8556C35.5323 66.206 77.2638 100.825 132.438 125.553C183.249 148.334 256.152 167.104 315.106 127.345L317.6 125.67L316.587 128.474C316.392 128.98 298.819 178.32 306.222 241.016C313.041 298.845 343.122 380.155 447.743 439.23L449.496 440.243L447.626 440.983C445.522 441.839 238.15 526.265 249.684 629.695L249.879 631.253L248.398 630.707C246.995 630.162 106.643 578.447 22.5569 650.685L21.1152 651.892ZM-70.1408 556.523C4.82785 562.287 20.4528 635.77 22.518 648.114C102.903 580.706 232.305 623.075 247.502 628.371C243.605 585.34 276.57 539.155 342.966 494.645C388.243 464.309 435.196 444.059 444.976 439.97C341.018 380.545 311.015 299.156 304.196 241.172C297.767 186.381 310.274 141.675 313.781 130.499C254.515 168.74 182.157 149.97 131.542 127.306C82.6799 105.421 44.3383 75.7857 35.6492 68.8151C44.689 152.579 7.28265 198.803 -25.8765 222.908C-57.9447 246.195 -92.3118 253.75 -99.9879 255.23C-78.4403 284.008 -70.2576 312.981 -75.6348 341.369C-84.324 387.048 -126.25 417.579 -136.42 424.393C-116.236 427.431 -100.222 436.699 -88.805 451.964C-61.6464 488.219 -68.8939 547.878 -70.1408 556.523Z" fill="#333333"/>
<path d="M39.3508 606.33L39.156 604.5C39.0781 603.799 30.0382 532.379 -38.1505 528.602L-39.2415 528.524L-39.0467 527.434C-38.9688 526.888 -29.6951 473.11 -53.152 440.905C-62.6984 427.781 -76.4141 419.915 -93.9484 417.54L-96.6759 417.15L-94.338 415.748C-93.9094 415.476 -49.5672 388.294 -41.6574 345.575C-37.3712 322.444 -44.4239 298.884 -62.6205 275.558L-63.6726 274.234L-61.9971 274C-61.6854 273.961 -30.1237 269.483 -0.588264 248.571C26.6483 229.295 57.7034 191.716 51.0793 122.088L50.8455 119.712L52.6768 121.27C53.7289 122.165 135.361 190.431 215.94 190.431C239.007 190.431 261.997 184.823 282.999 170.453L285.493 168.74L284.441 171.583C284.285 171.972 269.712 212.783 275.868 264.537C281.596 312.241 306.651 379.338 393.698 427.976L395.491 428.989L393.581 429.728C391.828 430.39 219.33 498.539 229.89 586.625L230.084 588.222L228.565 587.638C227.396 587.17 111.709 542.816 40.7926 605.084L39.3508 606.33ZM-36.9816 526.694C25.791 530.86 38.9222 591.259 40.8315 602.475C108.319 544.919 213.992 580.317 227.785 585.301C224.279 548.657 251.437 509.949 306.495 473.304C343.589 448.615 382.126 432.338 391.01 428.716C304.663 379.766 279.687 312.591 273.959 264.732C268.66 220.182 278.596 183.655 281.752 173.647C232.227 205.813 172.845 190.742 131.425 172.206C91.8756 154.487 60.8985 130.421 53.2613 124.268C59.0671 193.39 27.8951 230.891 0.541725 250.206C-25.5258 268.626 -53.152 274.467 -60.0488 275.674C-42.2418 299.04 -35.384 322.677 -39.7091 345.964C-46.7618 384.011 -81.9861 409.868 -91.1039 416.021C-74.2321 418.903 -60.945 426.886 -51.5155 439.814C-29.5392 470.072 -35.8126 518.866 -36.9816 526.694Z" fill="#333333"/>
<path d="M57.6254 560.729L57.4306 558.821C57.3526 558.237 50.6117 500.836 -4.99134 498.733L-6.12133 498.695L-5.88754 497.565C-5.8096 497.137 2.25614 454.768 -15.9405 428.638C-23.4607 417.89 -34.4489 411.27 -48.6711 409.011L-51.2817 408.583L-49.0218 407.22C-48.6321 406.986 -11.8881 384.517 -5.77065 350.092C-2.57552 332.062 -8.30337 313.798 -22.7594 295.885L-23.8893 294.483L-22.1359 294.289C-21.1618 294.172 75.0817 282.489 68.6914 177.385L68.5356 175.088L70.289 176.606C71.1073 177.307 132.984 230.307 195.951 230.307C214.693 230.307 233.513 225.634 250.853 213.484L253.385 211.693L252.333 214.614C252.216 214.925 240.605 247.169 245.592 287.98C250.19 325.598 270.257 378.481 339.693 416.644L341.563 417.656L339.576 418.396C338.173 418.903 200.51 470.734 210.095 543.439L210.329 545.113L208.771 544.451C207.874 544.062 116.813 507.067 59.0281 559.366L57.6254 560.729ZM-3.8224 496.864C46.7931 499.434 57.4306 546.866 59.106 556.796C113.657 509.092 195.834 537.52 208.03 542.154C200.939 473.577 320.171 424.043 337.004 417.384C268.27 378.87 248.32 325.948 243.722 288.175C239.553 253.75 246.995 225.361 249.684 216.716C178.456 263.563 84.6671 190.859 70.7955 179.566C75.3934 276.765 -7.21235 293.977 -20.2266 296.041C-6.16029 313.993 -0.705185 332.296 -3.90031 350.482C-9.27748 380.934 -37.9557 402.158 -45.9435 407.571C-32.3837 410.257 -21.7463 416.994 -14.3819 427.587C2.60683 451.964 -2.69241 489.933 -3.8224 496.864Z" fill="#333333"/>
<path d="M75.9001 515.206L75.7053 513.22C75.5494 511.428 71.1463 469.371 28.168 468.982H26.9601L27.2328 467.814C27.3107 467.502 34.1686 436.504 21.1932 416.527C15.6992 408.116 7.43859 402.742 -3.43264 400.639L-5.92639 400.172L-3.74433 398.886C-3.43261 398.692 25.7911 380.934 30.0383 354.882C32.1424 341.915 27.7783 328.986 17.063 316.447L15.7771 314.967L17.7253 314.85C18.4267 314.811 86.4596 309.943 86.3037 232.877V230.658L87.9403 232.137C88.4858 232.644 130.763 270.417 176.079 270.417C190.418 270.417 205.069 266.64 218.785 256.671L221.395 254.802L220.265 257.8C219.915 258.735 186.561 352.507 285.765 405.507L287.753 406.558L285.649 407.259C284.596 407.609 181.807 443.163 190.418 500.486L190.691 502.277L189.054 501.537C188.392 501.226 121.996 471.591 77.3808 513.921L75.9001 515.206ZM29.3369 467.035C67.7954 468.086 75.939 502.628 77.3418 511.156C118.956 473.382 177.793 494.8 188.197 499.045C182.08 445.734 268.348 411.504 282.882 406.13C194.042 357.374 212.784 275.869 217.538 259.864C164.351 295.496 99.2401 244.17 88.213 234.902C87.2389 304.608 30.7397 315.123 19.6736 316.524C29.9214 329.103 34.0517 342.07 31.9086 355.155C28.168 378.053 5.95795 394.642 -0.821959 399.237C9.4648 401.768 17.3747 407.22 22.7908 415.476C34.9479 434.129 30.5448 461.038 29.3369 467.035Z" fill="#333333"/>
<path d="M94.0966 469.761L93.9408 467.58C93.8629 466.373 91.6808 437.906 61.3271 439.152L59.9633 439.191L60.353 437.906C60.3919 437.712 66.0419 418.085 58.2878 404.338C54.8589 398.263 49.2869 394.136 41.7667 392.15L39.5457 391.565L41.5329 390.397C41.7667 390.28 63.4701 377.196 65.847 359.672C66.8991 351.806 63.8988 344.134 56.9241 336.852L55.2096 335.061L57.7033 335.217C59.3399 335.294 97.9542 337.086 103.955 288.136L104.189 286.15L105.591 287.552C106.02 287.98 148.219 329.531 186.677 299.779L189.405 297.677L188.197 300.87C187.963 301.454 166.26 361.23 231.76 394.175L234.02 395.304L231.604 395.966C230.903 396.161 163.026 415.398 170.663 457.338L171.014 459.324L169.221 458.351C168.793 458.117 127.1 435.881 95.6552 468.164L94.0966 469.761ZM63.2753 437.166C88.9533 437.166 94.5252 458.662 95.6552 465.438C124.217 437.751 160.181 452.003 168.403 455.82C163.337 417.968 216.836 398.614 228.721 394.798C172.338 365.085 181.963 315.434 185.431 303.051C150.323 327.545 113.189 297.054 105.591 290.2C99.5517 332.374 68.4967 336.696 59.8075 337.086C66.1588 344.329 68.8473 352 67.7563 359.906C65.6522 375.482 49.7935 387.243 44.3384 390.903C51.3521 393.24 56.6123 397.407 60.0023 403.404C67.0939 415.982 63.7429 432.493 62.574 437.205C62.8078 437.166 63.0416 437.166 63.2753 437.166Z" fill="#333333"/>
<path d="M112.215 424.627L112.254 421.862C112.254 421.784 112.254 415.593 107.89 411.854C104.851 409.245 100.37 408.388 94.6032 409.323L92.7329 409.634L93.5901 407.921C93.6291 407.843 97.7983 399.471 95.2266 392.111C93.9408 388.411 91.1353 385.529 86.8881 383.582L85.1737 382.803L86.7713 381.869C86.9271 381.791 101.149 373.418 101.5 365.007C101.617 362.164 100.058 359.555 96.8632 357.297C96.8242 357.297 96.8242 357.258 96.8242 357.258L97.9542 355.7C97.9542 355.7 97.9542 355.7 97.9932 355.7C98.2269 355.856 101.656 358.153 106.526 357.102C111.904 355.934 117.008 351.222 121.606 343.083L122.424 341.681L123.281 343.044C123.32 343.122 127.646 349.82 135.361 350.871C141.322 351.689 147.751 348.963 154.492 342.849L157.649 339.967L156.051 343.901C155.622 344.952 145.959 369.836 177.677 382.803L181.417 384.322L177.404 384.673C177.248 384.673 160.61 386.191 153.362 396.355C149.933 401.106 149.115 407.103 150.869 414.152L151.609 417.189L149.271 415.125C149.193 415.086 142.842 409.518 133.88 410.219C126.905 410.764 120.203 414.892 113.969 422.446L112.215 424.627ZM98.8894 407.025C103.137 407.025 106.565 408.155 109.176 410.413C112.449 413.217 113.579 417.072 113.969 419.526C120.125 412.633 126.788 408.895 133.724 408.349C140.426 407.804 145.647 410.413 148.414 412.166C147.284 405.623 148.414 399.977 151.765 395.304C157.532 387.243 168.286 384.322 173.819 383.31C150.323 372.172 151.687 353.831 153.323 346.471C147.011 351.494 140.855 353.636 135.088 352.857C128.542 351.962 124.334 347.6 122.58 345.419C117.865 353.286 112.605 357.881 106.916 359.088C104.89 359.516 103.098 359.477 101.617 359.205C102.981 361.035 103.604 363.06 103.487 365.202C103.137 372.99 93.1225 380.194 89.265 382.726C93.1225 384.867 95.7332 387.827 97.058 391.565C99.2011 397.718 97.2139 404.26 96.006 407.22C97.0191 407.064 97.9542 407.025 98.8894 407.025Z" fill="#333333"/>
<path d="M112.215 424.627L112.254 421.862C112.254 421.784 112.254 415.593 107.89 411.854C104.851 409.245 100.37 408.388 94.6032 409.323L92.7329 409.634L93.5901 407.921C93.6291 407.843 97.7983 399.471 95.2266 392.111C93.9408 388.411 91.1353 385.529 86.8881 383.582L85.1737 382.803L86.7713 381.869C86.9271 381.791 101.149 373.418 101.5 365.007C101.617 362.164 100.058 359.555 96.8632 357.297C96.8242 357.297 96.8242 357.258 96.8242 357.258L97.9542 355.7C97.9542 355.7 97.9542 355.7 97.9932 355.7C98.2269 355.856 101.656 358.153 106.526 357.102C111.904 355.934 117.008 351.222 121.606 343.083L122.424 341.681L123.281 343.044C123.32 343.122 127.646 349.82 135.361 350.871C141.322 351.689 147.751 348.963 154.492 342.849L157.649 339.967L156.051 343.901C155.622 344.952 145.959 369.836 177.677 382.803L181.417 384.322L177.404 384.673C177.248 384.673 160.61 386.191 153.362 396.355C149.933 401.106 149.115 407.103 150.869 414.152L151.609 417.189L149.271 415.125C149.193 415.086 142.842 409.518 133.88 410.219C126.905 410.764 120.203 414.892 113.969 422.446L112.215 424.627ZM98.8894 407.025C103.137 407.025 106.565 408.155 109.176 410.413C112.449 413.217 113.579 417.072 113.969 419.526C120.125 412.633 126.788 408.895 133.724 408.349C140.426 407.804 145.647 410.413 148.414 412.166C147.284 405.623 148.414 399.977 151.765 395.304C157.532 387.243 168.286 384.322 173.819 383.31C150.323 372.172 151.687 353.831 153.323 346.471C147.011 351.494 140.855 353.636 135.088 352.857C128.542 351.962 124.334 347.6 122.58 345.419C117.865 353.286 112.605 357.881 106.916 359.088C104.89 359.516 103.098 359.477 101.617 359.205C102.981 361.035 103.604 363.06 103.487 365.202C103.137 372.99 93.1225 380.194 89.265 382.726C93.1225 384.867 95.7332 387.827 97.058 391.565C99.2011 397.718 97.2139 404.26 96.006 407.22C97.0191 407.064 97.9542 407.025 98.8894 407.025Z" fill="black" fill-opacity="0.6"/>
</svg>
