<svg width="526" height="739" viewBox="0 0 526 739" fill="none" xmlns="http://www.w3.org/2000/svg">
<path d="M531.254 709.915C530.908 709.915 530.562 709.721 530.37 709.331L380.015 374.743C379.785 374.275 380.015 373.691 380.476 373.457C380.937 373.224 381.513 373.457 381.743 373.925L532.137 708.513C532.367 708.981 532.137 709.565 531.676 709.798C531.522 709.876 531.369 709.915 531.254 709.915Z" fill="#131313"/>
<path d="M759.11 455.469C759.033 455.469 758.995 455.469 758.918 455.43L380.668 375.288C380.169 375.171 379.823 374.665 379.938 374.158C380.054 373.652 380.553 373.302 381.052 373.418L759.302 453.561C759.801 453.678 760.147 454.184 760.032 454.729C759.955 455.157 759.571 455.469 759.11 455.469Z" fill="#131313"/>
<path d="M380.86 375.327C380.668 375.327 380.476 375.249 380.284 375.132C379.862 374.82 379.785 374.197 380.092 373.769L610.829 59.4691C611.136 59.0407 611.75 58.9629 612.173 59.2744C612.595 59.5859 612.672 60.209 612.365 60.6374L381.628 374.937C381.436 375.171 381.167 375.327 380.86 375.327Z" fill="#131313"/>
<path d="M380.86 375.327C380.438 375.327 380.092 375.054 379.938 374.665L262.995 1.25099C262.842 0.744746 263.111 0.19956 263.61 0.0437926C264.109 -0.111975 264.647 0.160618 264.8 0.666863L381.782 374.081C381.935 374.587 381.667 375.132 381.167 375.288C381.052 375.288 380.975 375.327 380.86 375.327Z" fill="#131313"/>
<path d="M380.86 375.327C380.706 375.327 380.553 375.288 380.438 375.21L36.5216 196.544C36.0608 196.311 35.8687 195.727 36.0992 195.22C36.3296 194.753 36.9057 194.558 37.4049 194.792L381.321 373.457C381.782 373.691 381.974 374.275 381.743 374.781C381.551 375.132 381.206 375.327 380.86 375.327Z" fill="#131313"/>
<path d="M1.11233 447.252C0.651475 447.252 0.267426 446.941 0.190616 446.473C0.0754012 445.928 0.421045 445.422 0.958714 445.344L380.706 373.418C381.244 373.302 381.743 373.652 381.82 374.197C381.897 374.743 381.59 375.249 381.052 375.327L1.26595 447.213C1.22755 447.252 1.15074 447.252 1.11233 447.252Z" fill="#131313"/>
<path d="M93.7449 637.405C93.4761 637.405 93.2073 637.289 93.0153 637.094C92.6696 636.704 92.708 636.081 93.0921 635.731L380.207 373.652C380.591 373.302 381.206 373.341 381.551 373.73C381.897 374.119 381.859 374.742 381.475 375.093L94.3594 637.172C94.2058 637.289 93.9754 637.405 93.7449 637.405Z" fill="#131313"/>
<path d="M237.302 738.966C237.187 738.966 237.072 738.927 236.957 738.888C236.458 738.693 236.227 738.109 236.419 737.642L379.977 374.003C380.169 373.496 380.745 373.263 381.206 373.457C381.705 373.652 381.935 374.236 381.743 374.704L238.186 738.343C238.032 738.732 237.687 738.966 237.302 738.966Z" fill="#131313"/>
<path d="M245.022 719.417C244.676 719.417 244.331 719.222 244.177 718.872C182.729 591.61 118.362 615.52 117.71 615.793L116.442 616.299L116.404 614.936C112.448 503.757 37.1361 440.866 36.368 440.282C35.9456 439.931 35.9072 439.347 36.2144 438.919C36.56 438.49 37.1361 438.451 37.5586 438.763C38.3267 439.386 113.715 502.316 118.247 613.573C122.549 612.249 137.411 608.861 158.035 617.156C180.156 626.034 213.376 650.762 245.867 718.054C246.097 718.521 245.905 719.105 245.444 719.339C245.329 719.378 245.175 719.417 245.022 719.417Z" fill="#131313"/>
<path d="M253.317 697.493L253.087 695.701C252.972 694.689 239.568 595.387 147.55 588.144L146.513 588.066L146.667 587.015C146.782 586.236 158.188 509.637 124.776 465.243C111.373 447.447 92.4776 437.05 68.6281 434.363L65.8246 434.051L68.2441 432.571C68.8202 432.221 127.426 395.615 138.717 336.424C145.092 303.128 135.491 268.898 110.221 234.708L109.261 233.422L110.797 233.15C111.258 233.072 156.422 225.206 197.937 194.013C236.189 165.274 279.049 110.249 266.068 11.2591L265.761 8.80573L267.642 10.3634C268.218 10.8696 316.993 51.486 381.206 80.7314C440.349 107.64 525.032 130.11 592.701 84.2751L595.121 82.6395L594.122 85.4044C593.93 85.9885 573.614 143.895 582.102 217.534C589.898 285.449 624.501 380.973 744.977 450.562L746.667 451.536L744.862 452.276C742.442 453.288 503.717 554.031 516.007 672.804L516.161 674.361L514.701 673.816C513.088 673.193 350.443 614.157 254.623 696.363L253.317 697.493ZM148.741 586.353C234.653 593.752 252.511 680.397 254.738 693.793C346.718 616.572 497.688 665.872 513.971 671.519C508.633 609.212 571.003 552.629 624.539 516.024C677.231 480.002 731.842 455.781 742.327 451.263C622.504 381.363 587.978 285.76 580.181 217.69C572.693 152.579 587.594 99.6571 591.434 87.4294C523.419 131.706 439.274 109.315 380.361 82.4838C323.022 56.3538 277.896 21.1503 268.372 13.4788C280.47 111.924 237.495 166.871 199.128 195.688C161.568 223.882 121.012 233.189 112.755 234.824C137.68 269.054 147.089 303.362 140.676 336.852C130.46 390.241 82.4923 425.406 71.5469 432.844C94.7051 436.076 113.139 446.59 126.389 464.153C158.112 506.366 149.97 576.968 148.741 586.353Z" fill="#333333"/>
<path d="M253.317 697.493L253.087 695.701C252.972 694.689 239.568 595.387 147.55 588.144L146.513 588.066L146.667 587.015C146.782 586.236 158.188 509.637 124.776 465.243C111.373 447.447 92.4776 437.05 68.6281 434.363L65.8246 434.051L68.2441 432.571C68.8202 432.221 127.426 395.615 138.717 336.424C145.092 303.128 135.491 268.898 110.221 234.708L109.261 233.422L110.797 233.15C111.258 233.072 156.422 225.206 197.937 194.013C236.189 165.274 279.049 110.249 266.068 11.2591L265.761 8.80573L267.642 10.3634C268.218 10.8696 316.993 51.486 381.206 80.7314C440.349 107.64 525.032 130.11 592.701 84.2751L595.121 82.6395L594.122 85.4044C593.93 85.9885 573.614 143.895 582.102 217.534C589.898 285.449 624.501 380.973 744.977 450.562L746.667 451.536L744.862 452.276C742.442 453.288 503.717 554.031 516.007 672.804L516.161 674.361L514.701 673.816C513.088 673.193 350.443 614.157 254.623 696.363L253.317 697.493ZM148.741 586.353C234.653 593.752 252.511 680.397 254.738 693.793C346.718 616.572 497.688 665.872 513.971 671.519C508.633 609.212 571.003 552.629 624.539 516.024C677.231 480.002 731.842 455.781 742.327 451.263C622.504 381.363 587.978 285.76 580.181 217.69C572.693 152.579 587.594 99.6571 591.434 87.4294C523.419 131.706 439.274 109.315 380.361 82.4838C323.022 56.3538 277.896 21.1503 268.372 13.4788C280.47 111.924 237.495 166.871 199.128 195.688C161.568 223.882 121.012 233.189 112.755 234.824C137.68 269.054 147.089 303.362 140.676 336.852C130.46 390.241 82.4923 425.406 71.5469 432.844C94.7051 436.076 113.139 446.59 126.389 464.153C158.112 506.366 149.97 576.968 148.741 586.353Z" fill="black" fill-opacity="0.6"/>
<path d="M271.329 651.892L271.099 650.101C270.984 649.244 259.846 563.883 180.233 558.392L179.196 558.315L179.349 557.263C179.465 556.601 189.719 491.412 161.453 453.094C150.047 437.634 133.84 428.521 113.293 425.951L110.528 425.601L112.909 424.16C113.408 423.848 164.564 391.955 174.126 340.98C179.426 312.747 171.169 283.852 149.547 255.113L148.587 253.828L150.162 253.594C150.546 253.516 188.682 247.364 224.014 221.312C256.543 197.323 293.297 151.021 283.542 66.7123L283.273 64.2979L285.117 65.8556C285.539 66.2061 326.671 100.825 381.052 125.553C431.132 148.334 502.988 167.104 561.094 127.345L563.552 125.67L562.554 128.474C562.362 128.98 545.041 178.32 552.338 241.016C559.059 298.845 588.707 380.155 691.825 439.23L693.553 440.243L691.709 440.983C689.635 441.839 485.245 526.265 496.612 629.695L496.804 631.253L495.345 630.707C493.962 630.162 355.628 578.448 272.75 650.685L271.329 651.892ZM181.385 556.523C255.276 562.287 270.676 635.77 272.712 648.115C351.941 580.706 479.484 623.075 494.462 628.371C490.621 585.34 523.112 539.155 588.554 494.645C633.18 464.309 679.458 444.059 689.098 439.97C586.633 380.545 557.062 299.156 550.341 241.172C544.004 186.381 556.332 141.675 559.788 130.499C501.375 168.74 430.057 149.97 380.169 127.306C332.009 105.421 294.219 75.7858 285.654 68.8152C294.564 152.579 257.695 198.803 225.013 222.908C193.406 246.195 159.533 253.75 151.967 255.23C173.205 284.008 181.27 312.981 175.97 341.369C167.406 387.048 126.082 417.579 116.058 424.393C135.952 427.431 151.736 436.699 162.989 451.964C189.757 488.219 182.614 547.878 181.385 556.523Z" fill="#333333"/>
<path d="M271.329 651.892L271.099 650.101C270.984 649.244 259.846 563.883 180.233 558.392L179.196 558.315L179.349 557.263C179.465 556.601 189.719 491.412 161.453 453.094C150.047 437.634 133.84 428.521 113.293 425.951L110.528 425.601L112.909 424.16C113.408 423.848 164.564 391.955 174.126 340.98C179.426 312.747 171.169 283.852 149.547 255.113L148.587 253.828L150.162 253.594C150.546 253.516 188.682 247.364 224.014 221.312C256.543 197.323 293.297 151.021 283.542 66.7123L283.273 64.2979L285.117 65.8556C285.539 66.2061 326.671 100.825 381.052 125.553C431.132 148.334 502.988 167.104 561.094 127.345L563.552 125.67L562.554 128.474C562.362 128.98 545.041 178.32 552.338 241.016C559.059 298.845 588.707 380.155 691.825 439.23L693.553 440.243L691.709 440.983C689.635 441.839 485.245 526.265 496.612 629.695L496.804 631.253L495.345 630.707C493.962 630.162 355.628 578.448 272.75 650.685L271.329 651.892ZM181.385 556.523C255.276 562.287 270.676 635.77 272.712 648.115C351.941 580.706 479.484 623.075 494.462 628.371C490.621 585.34 523.112 539.155 588.554 494.645C633.18 464.309 679.458 444.059 689.098 439.97C586.633 380.545 557.062 299.156 550.341 241.172C544.004 186.381 556.332 141.675 559.788 130.499C501.375 168.74 430.057 149.97 380.169 127.306C332.009 105.421 294.219 75.7858 285.654 68.8152C294.564 152.579 257.695 198.803 225.013 222.908C193.406 246.195 159.533 253.75 151.967 255.23C173.205 284.008 181.27 312.981 175.97 341.369C167.406 387.048 126.082 417.579 116.058 424.393C135.952 427.431 151.736 436.699 162.989 451.964C189.757 488.219 182.614 547.878 181.385 556.523Z" fill="black" fill-opacity="0.6"/>
<path d="M289.303 606.33L289.111 604.5C289.034 603.799 280.124 532.379 212.915 528.602L211.84 528.524L212.032 527.434C212.109 526.888 221.249 473.11 198.129 440.905C188.72 427.781 175.202 419.915 157.92 417.54L155.231 417.15L157.535 415.748C157.958 415.476 201.663 388.294 209.459 345.575C213.683 322.444 206.732 298.884 188.797 275.558L187.76 274.234L189.412 274C189.719 273.961 220.827 269.483 249.938 248.571C276.783 229.295 307.391 191.716 300.863 122.088L300.632 119.712L302.437 121.27C303.474 122.166 383.932 190.431 463.354 190.431C486.089 190.431 508.748 184.823 529.449 170.453L531.907 168.74L530.87 171.583C530.716 171.972 516.353 212.783 522.421 264.537C528.066 312.241 552.76 379.338 638.557 427.976L640.324 428.989L638.442 429.728C636.713 430.39 466.695 498.539 477.103 586.625L477.295 588.222L475.797 587.638C474.645 587.171 360.621 542.816 290.724 605.084L289.303 606.33ZM214.067 526.694C275.938 530.861 288.88 591.259 290.762 602.475C357.279 544.919 461.434 580.317 475.029 585.301C471.572 548.657 498.341 509.949 552.607 473.304C589.168 448.615 627.151 432.338 635.907 428.716C550.802 379.766 526.184 312.591 520.539 264.732C515.316 220.182 525.109 183.655 528.22 173.647C479.407 205.813 420.878 190.742 380.053 172.206C341.073 154.487 310.541 130.421 303.013 124.268C308.736 193.39 278.012 230.891 251.051 250.206C225.359 268.626 198.129 274.467 191.332 275.674C208.883 299.04 215.642 322.677 211.379 345.964C204.428 384.011 169.71 409.868 160.723 416.021C177.352 418.903 190.448 426.886 199.742 439.814C221.403 470.072 215.22 518.866 214.067 526.694Z" fill="#333333"/>
<path d="M289.303 606.33L289.111 604.5C289.034 603.799 280.124 532.379 212.915 528.602L211.84 528.524L212.032 527.434C212.109 526.888 221.249 473.11 198.129 440.905C188.72 427.781 175.202 419.915 157.92 417.54L155.231 417.15L157.535 415.748C157.958 415.476 201.663 388.294 209.459 345.575C213.683 322.444 206.732 298.884 188.797 275.558L187.76 274.234L189.412 274C189.719 273.961 220.827 269.483 249.938 248.571C276.783 229.295 307.391 191.716 300.863 122.088L300.632 119.712L302.437 121.27C303.474 122.166 383.932 190.431 463.354 190.431C486.089 190.431 508.748 184.823 529.449 170.453L531.907 168.74L530.87 171.583C530.716 171.972 516.353 212.783 522.421 264.537C528.066 312.241 552.76 379.338 638.557 427.976L640.324 428.989L638.442 429.728C636.713 430.39 466.695 498.539 477.103 586.625L477.295 588.222L475.797 587.638C474.645 587.171 360.621 542.816 290.724 605.084L289.303 606.33ZM214.067 526.694C275.938 530.861 288.88 591.259 290.762 602.475C357.279 544.919 461.434 580.317 475.029 585.301C471.572 548.657 498.341 509.949 552.607 473.304C589.168 448.615 627.151 432.338 635.907 428.716C550.802 379.766 526.184 312.591 520.539 264.732C515.316 220.182 525.109 183.655 528.22 173.647C479.407 205.813 420.878 190.742 380.053 172.206C341.073 154.487 310.541 130.421 303.013 124.268C308.736 193.39 278.012 230.891 251.051 250.206C225.359 268.626 198.129 274.467 191.332 275.674C208.883 299.04 215.642 322.677 211.379 345.964C204.428 384.011 169.71 409.868 160.723 416.021C177.352 418.903 190.448 426.886 199.742 439.814C221.403 470.072 215.22 518.866 214.067 526.694Z" fill="black" fill-opacity="0.6"/>
<path d="M307.315 560.729L307.123 558.821C307.046 558.237 300.402 500.836 245.598 498.733L244.484 498.695L244.715 497.565C244.791 497.137 252.741 454.768 234.806 428.638C227.394 417.89 216.564 411.27 202.546 409.011L199.973 408.583L202.2 407.22C202.584 406.986 238.8 384.517 244.83 350.092C247.979 332.062 242.334 313.798 228.085 295.885L226.972 294.483L228.7 294.289C229.66 294.172 324.52 282.489 318.222 177.385L318.068 175.088L319.796 176.606C320.603 177.307 381.59 230.307 443.652 230.307C462.125 230.307 480.674 225.634 497.765 213.484L500.261 211.693L499.224 214.614C499.109 214.925 487.664 247.169 492.58 287.98C497.112 325.598 516.89 378.481 585.328 416.644L587.171 417.656L585.213 418.396C583.83 418.903 448.145 470.734 457.593 543.439L457.823 545.113L456.287 544.451C455.404 544.062 365.652 507.067 308.697 559.366L307.315 560.729ZM246.75 496.864C296.638 499.434 307.123 546.866 308.774 556.796C362.541 509.092 443.537 537.52 455.558 542.154C448.568 473.577 566.087 424.043 582.678 417.384C514.932 378.87 495.268 325.948 490.736 288.175C486.627 253.75 493.963 225.361 496.612 216.716C426.408 263.563 333.968 190.859 320.295 179.566C324.827 276.765 243.409 293.977 230.582 296.041C244.446 313.993 249.822 332.296 246.673 350.482C241.373 380.934 213.107 402.158 205.234 407.571C218.599 410.257 229.084 416.994 236.342 427.587C253.087 451.964 247.864 489.933 246.75 496.864Z" fill="#333333"/>
<path d="M307.315 560.729L307.123 558.821C307.046 558.237 300.402 500.836 245.598 498.733L244.484 498.695L244.715 497.565C244.791 497.137 252.741 454.768 234.806 428.638C227.394 417.89 216.564 411.27 202.546 409.011L199.973 408.583L202.2 407.22C202.584 406.986 238.8 384.517 244.83 350.092C247.979 332.062 242.334 313.798 228.085 295.885L226.972 294.483L228.7 294.289C229.66 294.172 324.52 282.489 318.222 177.385L318.068 175.088L319.796 176.606C320.603 177.307 381.59 230.307 443.652 230.307C462.125 230.307 480.674 225.634 497.765 213.484L500.261 211.693L499.224 214.614C499.109 214.925 487.664 247.169 492.58 287.98C497.112 325.598 516.89 378.481 585.328 416.644L587.171 417.656L585.213 418.396C583.83 418.903 448.145 470.734 457.593 543.439L457.823 545.113L456.287 544.451C455.404 544.062 365.652 507.067 308.697 559.366L307.315 560.729ZM246.75 496.864C296.638 499.434 307.123 546.866 308.774 556.796C362.541 509.092 443.537 537.52 455.558 542.154C448.568 473.577 566.087 424.043 582.678 417.384C514.932 378.87 495.268 325.948 490.736 288.175C486.627 253.75 493.963 225.361 496.612 216.716C426.408 263.563 333.968 190.859 320.295 179.566C324.827 276.765 243.409 293.977 230.582 296.041C244.446 313.993 249.822 332.296 246.673 350.482C241.373 380.934 213.107 402.158 205.234 407.571C218.599 410.257 229.084 416.994 236.342 427.587C253.087 451.964 247.864 489.933 246.75 496.864Z" fill="black" fill-opacity="0.6"/>
<path d="M325.327 515.206L325.135 513.22C324.981 511.428 320.641 469.371 278.281 468.982H277.09L277.359 467.814C277.436 467.502 284.195 436.504 271.406 416.527C265.991 408.116 257.849 402.742 247.134 400.639L244.676 400.172L246.827 398.886C247.134 398.692 275.938 380.934 280.124 354.882C282.198 341.915 277.896 328.986 267.335 316.447L266.068 314.967L267.988 314.85C268.679 314.811 335.734 309.943 335.581 232.877V230.658L337.194 232.137C337.731 232.644 379.401 270.417 424.066 270.417C438.199 270.417 452.639 266.64 466.157 256.671L468.73 254.802L467.617 257.8C467.271 258.735 434.396 352.507 532.175 405.507L534.134 406.558L532.06 407.259C531.023 407.609 429.711 443.163 438.199 500.486L438.467 502.277L436.854 501.537C436.201 501.226 370.76 471.591 326.786 513.921L325.327 515.206ZM279.433 467.035C317.338 468.086 325.365 502.628 326.748 511.156C367.764 473.382 425.755 494.8 436.009 499.045C429.98 445.734 515.008 411.504 529.333 406.13C441.77 357.374 460.243 275.869 464.928 259.864C412.506 295.496 348.331 244.17 337.462 234.902C336.502 304.608 280.815 315.123 269.908 316.524C280.009 329.103 284.08 342.07 281.967 355.155C278.28 378.053 256.39 394.642 249.707 399.237C259.846 401.768 267.642 407.22 272.981 415.476C284.963 434.129 280.623 461.038 279.433 467.035Z" fill="#333333"/>
<path d="M325.327 515.206L325.135 513.22C324.981 511.428 320.641 469.371 278.281 468.982H277.09L277.359 467.814C277.436 467.502 284.195 436.504 271.406 416.527C265.991 408.116 257.849 402.742 247.134 400.639L244.676 400.172L246.827 398.886C247.134 398.692 275.938 380.934 280.124 354.882C282.198 341.915 277.896 328.986 267.335 316.447L266.068 314.967L267.988 314.85C268.679 314.811 335.734 309.943 335.581 232.877V230.658L337.194 232.137C337.731 232.644 379.401 270.417 424.066 270.417C438.199 270.417 452.639 266.64 466.157 256.671L468.73 254.802L467.617 257.8C467.271 258.735 434.396 352.507 532.175 405.507L534.134 406.558L532.06 407.259C531.023 407.609 429.711 443.163 438.199 500.486L438.467 502.277L436.854 501.537C436.201 501.226 370.76 471.591 326.786 513.921L325.327 515.206ZM279.433 467.035C317.338 468.086 325.365 502.628 326.748 511.156C367.764 473.382 425.755 494.8 436.009 499.045C429.98 445.734 515.008 411.504 529.333 406.13C441.77 357.374 460.243 275.869 464.928 259.864C412.506 295.496 348.331 244.17 337.462 234.902C336.502 304.608 280.815 315.123 269.908 316.524C280.009 329.103 284.08 342.07 281.967 355.155C278.28 378.053 256.39 394.642 249.707 399.237C259.846 401.768 267.642 407.22 272.981 415.476C284.963 434.129 280.623 461.038 279.433 467.035Z" fill="black" fill-opacity="0.6"/>
<path d="M343.262 469.761L343.108 467.58C343.031 466.373 340.88 437.906 310.963 439.152L309.619 439.191L310.003 437.906C310.041 437.712 315.61 418.085 307.967 404.338C304.588 398.263 299.096 394.136 291.684 392.15L289.495 391.565L291.453 390.397C291.684 390.28 313.075 377.196 315.418 359.672C316.455 351.806 313.498 344.134 306.623 336.852L304.933 335.061L307.391 335.217C309.004 335.294 347.064 337.086 352.978 288.136L353.208 286.15L354.591 287.552C355.013 287.98 396.606 329.531 434.512 299.779L437.2 297.677L436.009 300.87C435.779 301.454 414.387 361.23 478.946 394.175L481.174 395.304L478.792 395.966C478.101 396.161 411.2 415.398 418.727 457.338L419.073 459.324L417.306 458.351C416.884 458.117 375.791 435.881 344.798 468.164L343.262 469.761ZM312.883 437.166C338.192 437.166 343.684 458.662 344.798 465.438C372.949 437.751 408.396 452.003 416.5 455.82C411.507 417.968 464.237 398.614 475.951 394.798C420.379 365.085 429.865 315.434 433.283 303.051C398.68 327.545 362.08 297.054 354.591 290.2C348.638 332.374 318.03 336.696 309.465 337.086C315.725 344.329 318.375 352 317.3 359.906C315.226 375.482 299.595 387.243 294.219 390.903C301.131 393.24 306.316 397.407 309.657 403.404C316.647 415.982 313.344 432.493 312.192 437.205C312.422 437.166 312.653 437.166 312.883 437.166Z" fill="#333333"/>
<path d="M343.262 469.761L343.108 467.58C343.031 466.373 340.88 437.906 310.963 439.152L309.619 439.191L310.003 437.906C310.041 437.712 315.61 418.085 307.967 404.338C304.588 398.263 299.096 394.136 291.684 392.15L289.495 391.565L291.453 390.397C291.684 390.28 313.075 377.196 315.418 359.672C316.455 351.806 313.498 344.134 306.623 336.852L304.933 335.061L307.391 335.217C309.004 335.294 347.064 337.086 352.978 288.136L353.208 286.15L354.591 287.552C355.013 287.98 396.606 329.531 434.512 299.779L437.2 297.677L436.009 300.87C435.779 301.454 414.387 361.23 478.946 394.175L481.174 395.304L478.792 395.966C478.101 396.161 411.2 415.398 418.727 457.338L419.073 459.324L417.306 458.351C416.884 458.117 375.791 435.881 344.798 468.164L343.262 469.761ZM312.883 437.166C338.192 437.166 343.684 458.662 344.798 465.438C372.949 437.751 408.396 452.003 416.5 455.82C411.507 417.968 464.237 398.614 475.951 394.798C420.379 365.085 429.865 315.434 433.283 303.051C398.68 327.545 362.08 297.054 354.591 290.2C348.638 332.374 318.03 336.696 309.465 337.086C315.725 344.329 318.375 352 317.3 359.906C315.226 375.482 299.595 387.243 294.219 390.903C301.131 393.24 306.316 397.407 309.657 403.404C316.647 415.982 313.344 432.493 312.192 437.205C312.422 437.166 312.653 437.166 312.883 437.166Z" fill="black" fill-opacity="0.6"/>
<path d="M361.12 424.627L361.158 421.862C361.158 421.784 361.158 415.593 356.857 411.854C353.861 409.245 349.445 408.388 343.761 409.323L341.917 409.634L342.762 407.921C342.801 407.843 346.91 399.471 344.375 392.111C343.108 388.411 340.343 385.529 336.157 383.582L334.467 382.804L336.042 381.869C336.195 381.791 350.213 373.419 350.559 365.007C350.674 362.164 349.138 359.555 345.988 357.297C345.95 357.297 345.95 357.258 345.95 357.258L347.064 355.7C347.064 355.7 347.064 355.7 347.102 355.7C347.333 355.856 350.712 358.153 355.513 357.102C360.813 355.934 365.844 351.222 370.375 343.083L371.182 341.681L372.027 343.044C372.065 343.122 376.328 349.82 383.932 350.871C389.808 351.689 396.145 348.963 402.789 342.849L405.9 339.967L404.325 343.901C403.903 344.952 394.379 369.836 425.64 382.804L429.327 384.322L425.371 384.673C425.218 384.673 408.819 386.191 401.676 396.355C398.296 401.106 397.489 407.103 399.218 414.152L399.947 417.189L397.643 415.125C397.566 415.086 391.306 409.518 382.473 410.219C375.599 410.764 368.993 414.892 362.848 422.446L361.12 424.627ZM347.985 407.025C352.172 407.025 355.551 408.155 358.124 410.413C361.35 413.217 362.464 417.072 362.848 419.526C368.916 412.633 375.483 408.895 382.319 408.349C388.925 407.804 394.071 410.413 396.798 412.166C395.684 405.623 396.798 399.977 400.101 395.304C405.785 387.243 416.385 384.322 421.838 383.31C398.68 372.172 400.024 353.831 401.637 346.471C395.415 351.494 389.348 353.636 383.664 352.857C377.212 351.962 373.064 347.6 371.336 345.419C366.689 353.286 361.504 357.881 355.897 359.088C353.9 359.516 352.133 359.477 350.674 359.205C352.018 361.035 352.632 363.06 352.517 365.202C352.172 372.99 342.302 380.194 338.499 382.726C342.302 384.867 344.875 387.827 346.18 391.565C348.293 397.718 346.334 404.26 345.143 407.22C346.142 407.064 347.064 407.025 347.985 407.025Z" fill="#333333"/>
<path d="M361.12 424.627L361.158 421.862C361.158 421.784 361.158 415.593 356.857 411.854C353.861 409.245 349.445 408.388 343.761 409.323L341.917 409.634L342.762 407.921C342.801 407.843 346.91 399.471 344.375 392.111C343.108 388.411 340.343 385.529 336.157 383.582L334.467 382.804L336.042 381.869C336.195 381.791 350.213 373.419 350.559 365.007C350.674 362.164 349.138 359.555 345.988 357.297C345.95 357.297 345.95 357.258 345.95 357.258L347.064 355.7C347.064 355.7 347.064 355.7 347.102 355.7C347.333 355.856 350.712 358.153 355.513 357.102C360.813 355.934 365.844 351.222 370.375 343.083L371.182 341.681L372.027 343.044C372.065 343.122 376.328 349.82 383.932 350.871C389.808 351.689 396.145 348.963 402.789 342.849L405.9 339.967L404.325 343.901C403.903 344.952 394.379 369.836 425.64 382.804L429.327 384.322L425.371 384.673C425.218 384.673 408.819 386.191 401.676 396.355C398.296 401.106 397.489 407.103 399.218 414.152L399.947 417.189L397.643 415.125C397.566 415.086 391.306 409.518 382.473 410.219C375.599 410.764 368.993 414.892 362.848 422.446L361.12 424.627ZM347.985 407.025C352.172 407.025 355.551 408.155 358.124 410.413C361.35 413.217 362.464 417.072 362.848 419.526C368.916 412.633 375.483 408.895 382.319 408.349C388.925 407.804 394.071 410.413 396.798 412.166C395.684 405.623 396.798 399.977 400.101 395.304C405.785 387.243 416.385 384.322 421.838 383.31C398.68 372.172 400.024 353.831 401.637 346.471C395.415 351.494 389.348 353.636 383.664 352.857C377.212 351.962 373.064 347.6 371.336 345.419C366.689 353.286 361.504 357.881 355.897 359.088C353.9 359.516 352.133 359.477 350.674 359.205C352.018 361.035 352.632 363.06 352.517 365.202C352.172 372.99 342.302 380.194 338.499 382.726C342.302 384.867 344.875 387.827 346.18 391.565C348.293 397.718 346.334 404.26 345.143 407.22C346.142 407.064 347.064 407.025 347.985 407.025Z" fill="black" fill-opacity="0.6"/>
</svg>
