<svg width="41" height="41" viewBox="0 0 41 41" fill="none" xmlns="http://www.w3.org/2000/svg">
<path d="M20.5136 32.3929H20.4803C20.377 32.3929 10.0386 32.3729 7.43032 31.6646C5.99602 31.2782 4.8759 30.1574 4.49032 28.7229C4.02128 26.0768 3.79478 23.3935 3.81365 20.7062C3.80153 18.0146 4.03416 15.3274 4.50865 12.6779C4.90483 11.2421 6.02003 10.1161 7.45198 9.70622C9.98865 9.03955 20.042 9.03955 20.4687 9.03955H20.5037C20.6087 9.03955 30.9736 9.05955 33.5553 9.76788C34.9866 10.1562 36.1044 11.2747 36.492 12.7062C36.9759 15.3621 37.2031 18.0584 37.1703 20.7579C37.182 23.4463 36.9488 26.1301 36.4737 28.7762C36.0831 30.2089 34.9623 31.3272 33.5287 31.7146C30.9953 32.3862 20.9403 32.3929 20.5136 32.3929ZM17.1803 15.7146L17.172 25.7146L25.8587 20.7146L17.1803 15.7146Z" fill="#E6EAEE"/>
</svg>
